<svg width="17" height="16" viewBox="0 0 17 16" fill="none" xmlns="http://www.w3.org/2000/svg">
    <path
        d="M15.4821 6.57143H10.3214C10.1545 6.57143 10.0179 6.44286 10.0179 6.28571V1.42857C10.0179 0.639286 9.33862 0 8.5 0C7.66138 0 6.98214 0.639286 6.98214 1.42857V6.28571C6.98214 6.44286 6.84554 6.57143 6.67857 6.57143H1.51786C0.679241 6.57143 0 7.21071 0 8C0 8.78929 0.679241 9.42857 1.51786 9.42857H6.67857C6.84554 9.42857 6.98214 9.55714 6.98214 9.71429V14.5714C6.98214 15.3607 7.66138 16 8.5 16C9.33862 16 10.0179 15.3607 10.0179 14.5714V9.71429C10.0179 9.55714 10.1545 9.42857 10.3214 9.42857H15.4821C16.3208 9.42857 17 8.78929 17 8C17 7.21071 16.3208 6.57143 15.4821 6.57143Z"
        fill="#010101" />
</svg>