<svg width="27" height="30" viewBox="0 0 27 30" fill="none" xmlns="http://www.w3.org/2000/svg">
<path d="M24.3281 3.125H21.75V4.90625C21.75 5.23281 21.518 5.5 21.2344 5.5H20.2031C19.9195 5.5 19.6875 5.23281 19.6875 4.90625V3.125H7.3125V4.90625C7.3125 5.23281 7.08047 5.5 6.79688 5.5H5.76562C5.48203 5.5 5.25 5.23281 5.25 4.90625V3.125H2.67188C1.25391 3.125 0.09375 4.46094 0.09375 6.09375V26.2812C0.09375 27.9141 1.25391 29.25 2.67188 29.25H24.3281C25.7461 29.25 26.9062 27.9141 26.9062 26.2812V6.09375C26.9062 4.46094 25.7461 3.125 24.3281 3.125ZM24.8438 25.3906C24.8438 26.207 24.2637 26.875 23.5547 26.875H3.44531C2.73633 26.875 2.15625 26.207 2.15625 25.3906V12.0312C2.15625 11.7047 2.38828 11.4375 2.67188 11.4375H24.3281C24.6117 11.4375 24.8438 11.7047 24.8438 12.0312V25.3906ZM7.3125 1.34375C7.3125 1.01719 7.08047 0.75 6.79688 0.75H5.76562C5.48203 0.75 5.25 1.01719 5.25 1.34375V3.125H7.3125V1.34375ZM21.75 1.34375C21.75 1.01719 21.518 0.75 21.2344 0.75H20.2031C19.9195 0.75 19.6875 1.01719 19.6875 1.34375V3.125H21.75V1.34375Z" fill="black"/>
</svg>
