<svg width="33" height="38" viewBox="0 0 33 38" fill="none" xmlns="http://www.w3.org/2000/svg">
<path d="M27.3281 7.125H24.75V8.90625C24.75 9.23281 24.518 9.5 24.2344 9.5H23.2031C22.9195 9.5 22.6875 9.23281 22.6875 8.90625V7.125H10.3125V8.90625C10.3125 9.23281 10.0805 9.5 9.79688 9.5H8.76562C8.48203 9.5 8.25 9.23281 8.25 8.90625V7.125H5.67188C4.25391 7.125 3.09375 8.46094 3.09375 10.0938V30.2812C3.09375 31.9141 4.25391 33.25 5.67188 33.25H27.3281C28.7461 33.25 29.9062 31.9141 29.9062 30.2812V10.0938C29.9062 8.46094 28.7461 7.125 27.3281 7.125ZM27.8438 29.3906C27.8438 30.207 27.2637 30.875 26.5547 30.875H6.44531C5.73633 30.875 5.15625 30.207 5.15625 29.3906V16.0312C5.15625 15.7047 5.38828 15.4375 5.67188 15.4375H27.3281C27.6117 15.4375 27.8438 15.7047 27.8438 16.0312V29.3906ZM10.3125 5.34375C10.3125 5.01719 10.0805 4.75 9.79688 4.75H8.76562C8.48203 4.75 8.25 5.01719 8.25 5.34375V7.125H10.3125V5.34375ZM24.75 5.34375C24.75 5.01719 24.518 4.75 24.2344 4.75H23.2031C22.9195 4.75 22.6875 5.01719 22.6875 5.34375V7.125H24.75V5.34375Z" fill="black"/>
</svg>
