<?xml version="1.0" standalone="no"?>
<!DOCTYPE svg PUBLIC "-//W3C//DTD SVG 20010904//EN"
 "http://www.w3.org/TR/2001/REC-SVG-20010904/DTD/svg10.dtd">
<svg version="1.0" xmlns="http://www.w3.org/2000/svg"
 width="53pt" height="100px" viewBox="0 0 358.000000 328.000000"
 preserveAspectRatio="xMidYMid meet">

<g transform="translate(0.000000,328.000000) scale(0.100000,-0.100000)"
fill="#000000" stroke="none">
<path d="M20 3260 c-20 -20 -20 -33 -20 -1298 0 -1140 2 -1280 16 -1300 l15
-22 1244 0 1245 0 2 -306 c3 -299 4 -307 24 -320 18 -13 24 -12 46 6 15 11 58
64 97 117 39 54 83 113 98 131 l28 32 110 -145 c60 -79 116 -147 123 -150 7
-3 22 0 33 5 18 10 19 25 19 320 l0 310 224 0 c175 0 226 3 235 13 8 10 11
370 11 1308 1 1214 0 1295 -17 1306 -13 10 -373 13 -1765 13 -1735 0 -1748 0
-1768 -20z m3470 -1300 l0 -1230 -195 0 -195 0 0 105 c0 101 1 105 22 105 38
0 106 40 128 74 22 37 27 107 10 152 -16 41 3 75 56 103 112 60 112 212 0 272
-53 28 -72 62 -56 103 13 34 13 97 1 129 -14 36 -57 73 -102 86 -31 10 -49 9
-89 -3 -64 -19 -88 -9 -118 47 -32 59 -65 80 -132 85 -66 5 -110 -20 -145 -83
-25 -46 -65 -71 -92 -57 -73 38 -169 9 -211 -63 -23 -41 -23 -46 -7 -155 8
-50 3 -58 -57 -90 -92 -49 -109 -173 -34 -245 17 -16 46 -38 64 -47 36 -19 40
-39 20 -112 -10 -37 -9 -51 6 -90 21 -54 54 -83 113 -99 l43 -11 0 -103 0
-103 -1215 0 -1215 0 0 1230 0 1230 1700 0 1700 0 0 -1230z m-643 -65 c13 -9
30 -31 39 -51 9 -19 31 -44 48 -57 31 -22 62 -25 180 -15 32 2 42 -1 59 -24
18 -24 19 -31 7 -72 -24 -88 0 -155 73 -196 80 -46 82 -95 5 -147 -23 -15 -53
-44 -66 -63 -21 -30 -23 -42 -17 -90 16 -133 4 -158 -70 -144 -121 22 -166 6
-220 -79 -48 -76 -103 -74 -146 4 -44 79 -105 99 -217 74 -23 -5 -39 -3 -58
10 -24 16 -26 20 -19 64 16 97 12 135 -19 175 -16 21 -44 45 -63 52 -64 27
-69 104 -8 133 84 38 117 106 95 196 -22 90 15 133 91 106 88 -30 177 9 208
92 16 42 62 57 98 32z m-189 -967 c9 -17 31 -47 48 -67 28 -31 38 -35 92 -39
75 -5 119 18 154 80 23 41 52 67 63 57 3 -3 4 -181 3 -394 l-3 -389 -84 112
c-46 62 -90 116 -99 121 -26 14 -46 2 -89 -57 -23 -32 -62 -84 -87 -117 l-46
-58 0 391 c0 347 2 392 15 392 9 0 24 -14 33 -32z"/>
<path d="M432 2928 c-7 -7 -12 -18 -12 -25 0 -44 -52 -93 -99 -93 -11 0 -22
-7 -25 -16 -9 -23 -7 -1657 2 -1670 4 -7 26 -17 49 -23 45 -12 73 -48 73 -91
0 -11 6 -23 13 -25 6 -3 427 -6 935 -8 919 -2 923 -2 917 18 -4 11 -9 30 -12
42 l-5 23 -884 0 c-833 0 -885 1 -891 18 -13 37 -46 73 -84 92 l-39 20 0 771
c0 724 1 770 18 776 35 12 80 53 96 87 l17 36 1288 0 1289 0 12 -30 c14 -33
61 -77 97 -91 l23 -9 0 -397 0 -398 40 -23 40 -23 -2 452 c-3 390 -5 453 -18
459 -93 43 -94 44 -108 93 l-13 47 -1353 0 c-1038 0 -1355 -3 -1364 -12z"/>
<path d="M940 2550 c-20 -20 -18 -47 4 -62 6 -4 382 -8 837 -8 628 0 828 3
837 12 18 18 14 56 -7 67 -12 7 -304 11 -835 11 -801 0 -816 0 -836 -20z"/>
<path d="M1234 2316 c-3 -8 -4 -25 -2 -38 l3 -23 539 0 c502 0 540 1 550 18 8
12 8 22 0 35 -10 16 -49 17 -548 20 -459 2 -537 0 -542 -12z"/>
<path d="M944 2092 c-22 -15 -24 -42 -4 -62 20 -20 36 -20 836 -20 543 0 822
3 835 10 21 12 25 50 7 68 -9 9 -209 12 -837 12 -455 0 -831 -4 -837 -8z"/>
<path d="M2751 1739 c-106 -21 -202 -97 -249 -197 -37 -81 -38 -193 0 -273 51
-111 137 -177 258 -200 55 -10 75 -9 130 5 110 28 181 88 232 194 28 59 30 69
26 150 -4 68 -10 98 -30 137 -69 133 -226 212 -367 184z m175 -107 c91 -46
152 -156 141 -253 -19 -162 -180 -266 -334 -215 -66 22 -116 65 -147 128 -67
135 -2 298 141 353 51 20 147 13 199 -13z"/>
</g>
</svg>
