<svg width="16" height="16" viewBox="0 0 16 16" fill="none" xmlns="http://www.w3.org/2000/svg">
<path fill-rule="evenodd" clip-rule="evenodd" d="M14.4 0H1.6C0.72 0 0 0.8 0 1.77778V14.2222C0 15.2 0.72 16 1.6 16H14.4C15.28 16 16 15.2 16 14.2222V1.77778C16 0.8 15.28 0 14.4 0ZM6.4 12.4444H2.4V10.6667H6.4V12.4444ZM6.4 8.88889H2.4V7.11111H6.4V8.88889ZM6.4 5.33333H2.4V3.55556H6.4V5.33333ZM10.256 10.6667L8 8.14222L9.128 6.88889L10.256 8.15111L12.792 5.33333L13.928 6.59556L10.256 10.6667Z" fill="#BAB7B7"/>
</svg>
