<svg width="19" height="22" viewBox="0 0 19 22" fill="none" xmlns="http://www.w3.org/2000/svg">
<path d="M11.3643 17.8698H12.3821C12.6618 17.8698 12.8885 17.6401 12.8885 17.3566V8.07465C12.8885 7.79116 12.6618 7.56143 12.3821 7.56143H11.3643C11.0845 7.56143 10.8578 7.79116 10.8578 8.07465V17.3517C10.853 17.6401 11.0797 17.8698 11.3643 17.8698ZM18.3151 3.43613H14.8228L13.3806 1.002C13.014 0.381249 12.3483 0 11.6344 0H7.36075C6.64687 0 5.98121 0.381249 5.61462 1.002L4.17238 3.43613H0.680122C0.303884 3.43613 0 3.74406 0 4.12531V4.81449C0 5.19573 0.303884 5.50367 0.680122 5.50367H1.36024V19.9373C1.36024 21.0762 2.2719 22 3.39579 22H15.6042C16.7281 22 17.6398 21.0762 17.6398 19.9373V5.49878H18.3199C18.6961 5.49878 19 5.19085 19 4.8096V4.12042C18.9952 3.74406 18.6913 3.43613 18.3151 3.43613ZM7.2884 2.18485C7.33663 2.10664 7.41863 2.05777 7.50546 2.05777H11.4897C11.5814 2.05777 11.6634 2.10664 11.7068 2.18485L12.4448 3.43613H6.54557L7.2884 2.18485ZM15.6042 19.9325H3.39096V5.49878H15.5994V19.9325H15.6042ZM6.6131 17.8698H7.63087C7.91064 17.8698 8.13735 17.6401 8.13735 17.3566V8.07465C8.13735 7.79116 7.91064 7.56143 7.63087 7.56143H6.6131C6.33333 7.56143 6.10663 7.79116 6.10663 8.07465V17.3517C6.10663 17.6401 6.33333 17.8698 6.6131 17.8698Z" fill="black"/>
</svg>
