<?xml version="1.0" standalone="no"?>
<!DOCTYPE svg PUBLIC "-//W3C//DTD SVG 20010904//EN"
 "http://www.w3.org/TR/2001/REC-SVG-20010904/DTD/svg10.dtd">
<svg version="1.0" xmlns="http://www.w3.org/2000/svg"
 width="55pt" height="100px" viewBox="0 0 225.000000 189.000000"
 preserveAspectRatio="xMidYMid meet">

<g transform="translate(0.000000,189.000000) scale(0.100000,-0.100000)"
fill="#000000" stroke="none">
<path d="M140 1861 c-5 -11 -10 -45 -10 -75 l0 -56 -36 0 c-26 0 -43 -8 -65
-29 l-29 -29 0 -697 0 -697 29 -29 29 -29 711 0 711 0 0 -86 c0 -133 19 -149
112 -92 l51 32 58 -32 c64 -35 94 -40 103 -16 3 9 6 56 6 105 l0 89 191 0 191
0 29 29 29 29 0 697 0 697 -29 29 c-22 21 -39 29 -65 29 l-36 0 0 56 c0 103
43 94 -466 94 -467 0 -477 -1 -514 -45 -12 -14 -15 -14 -34 3 -45 42 -51 42
-510 42 -430 0 -446 -1 -456 -19z m899 -66 c16 -8 33 -27 40 -42 8 -20 11
-186 9 -603 l-3 -575 -437 -3 -438 -2 0 620 0 620 400 0 c331 0 406 -3 429
-15z m1001 -605 l0 -620 -437 2 -438 3 -3 575 c-2 416 1 583 9 603 23 56 28
56 467 57 l402 0 0 -620z m-1910 -166 c0 -419 4 -642 10 -655 10 -18 25 -19
395 -19 l385 0 0 -30 0 -30 -419 0 c-373 0 -420 2 -425 16 -8 21 -8 1339 1
1347 3 4 17 7 30 7 l23 0 0 -636z m2044 620 c8 -20 8 -1318 0 -1338 -5 -14
-31 -16 -185 -16 l-179 0 0 30 0 30 145 0 c132 0 145 2 155 19 6 13 10 236 10
655 l0 636 24 0 c13 0 27 -7 30 -16z m-1084 -1184 l0 -40 -440 0 -440 0 0 40
0 40 440 0 440 0 0 -40z m950 0 l0 -40 -440 0 -440 0 0 40 0 40 440 0 440 0 0
-40z m-790 -140 l0 -30 -125 0 -125 0 0 30 0 30 125 0 125 0 0 -30z m230 0 l0
-30 -75 0 -75 0 0 30 0 30 75 0 75 0 0 -30z m258 -92 c1 -65 0 -118 -3 -118
-3 0 -23 12 -45 26 l-39 26 -46 -26 -45 -27 0 121 0 121 88 -3 87 -3 3 -117z"/>
<path d="M383 1613 c-7 -2 -13 -18 -13 -34 0 -21 6 -30 23 -34 12 -3 123 -4
246 -3 200 3 225 5 235 21 8 12 8 22 0 35 -10 15 -34 17 -245 19 -129 1 -240
-1 -246 -4z"/>
<path d="M382 1448 c-17 -17 -15 -55 4 -62 31 -12 469 -7 482 6 18 18 14 46
-7 58 -29 15 -463 14 -479 -2z"/>
<path d="M377 1283 c-16 -16 -6 -53 16 -58 12 -3 123 -4 246 -3 193 3 225 5
234 19 6 9 7 24 4 33 -6 14 -34 16 -250 16 -134 0 -247 -3 -250 -7z"/>
<path d="M374 1116 c-3 -8 -4 -23 -2 -33 3 -17 20 -18 247 -18 214 0 245 2
254 16 6 9 7 24 4 33 -6 14 -34 16 -252 16 -205 0 -247 -2 -251 -14z"/>
<path d="M374 956 c-3 -8 -4 -23 -2 -33 3 -17 21 -18 244 -21 259 -3 274 0
259 48 -6 19 -13 20 -251 20 -204 0 -246 -2 -250 -14z"/>
<path d="M374 796 c-3 -8 -4 -23 -2 -33 3 -17 20 -18 253 -18 232 0 250 1 253
18 9 44 -7 47 -260 47 -199 0 -240 -2 -244 -14z"/>
<path d="M1382 1608 c-7 -7 -12 -19 -12 -28 0 -37 18 -40 251 -40 125 0 234 3
243 6 21 8 21 60 0 68 -31 12 -469 7 -482 -6z"/>
<path d="M1388 1449 c-21 -12 -23 -40 -6 -57 13 -13 451 -18 482 -6 19 7 21
45 4 62 -15 15 -454 16 -480 1z"/>
<path d="M1373 1274 c-3 -9 -2 -24 4 -33 9 -14 41 -16 234 -19 123 -1 234 0
247 3 18 4 23 11 20 33 l-3 27 -248 3 c-222 2 -248 1 -254 -14z"/>
<path d="M1373 1114 c-3 -9 -2 -24 4 -33 9 -14 40 -16 254 -16 l244 0 0 30 0
30 -248 3 c-222 2 -248 1 -254 -14z"/>
<path d="M1375 950 c-15 -48 0 -51 259 -48 l241 3 0 30 0 30 -247 3 c-242 2
-247 2 -253 -18z"/>
<path d="M1381 796 c-7 -8 -11 -23 -9 -33 3 -17 21 -18 253 -18 l250 0 0 30 0
30 -241 3 c-202 2 -243 0 -253 -12z"/>
</g>
</svg>
