<svg width="33" height="35" viewBox="0 0 33 35" fill="none" xmlns="http://www.w3.org/2000/svg">
<path d="M15.125 13.125C15.125 15.5458 13.2825 17.5 11 17.5C8.7175 17.5 6.875 15.5458 6.875 13.125C6.875 10.7042 8.7175 8.74999 11 8.74999C13.2825 8.74999 15.125 10.7042 15.125 13.125ZM19.25 29.1667H2.75V26.25C2.75 23.0271 6.44875 20.4167 11 20.4167C15.5512 20.4167 19.25 23.0271 19.25 26.25M30.25 17.5V20.4167H17.875V17.5M30.25 11.6667V14.5833H17.875V11.6667M30.25 5.83333V8.74999H17.875V5.83333H30.25Z" fill="black"/>
</svg>
