<svg width="13" height="13" viewBox="0 0 13 13" fill="none" xmlns="http://www.w3.org/2000/svg">
<path d="M6.49375 0C2.90625 0 0 2.9125 0 6.5C0 10.0875 2.90625 13 6.49375 13C10.0875 13 13 10.0875 13 6.5C13 2.9125 10.0875 0 6.49375 0ZM6.5 11.7C3.62812 11.7 1.3 9.37187 1.3 6.5C1.3 3.62812 3.62812 1.3 6.5 1.3C9.37187 1.3 11.7 3.62812 11.7 6.5C11.7 9.37187 9.37187 11.7 6.5 11.7Z" fill="#BAB7B7"/>
<path d="M6.8251 3.25H5.8501V7.15L9.2626 9.19687L9.7501 8.39688L6.8251 6.6625V3.25Z" fill="#BAB7B7"/>
</svg>
