<svg width="12" height="12" viewBox="0 0 12 12" fill="none" xmlns="http://www.w3.org/2000/svg">
<path d="M8 5.68421V1.89474L6 0L4 1.89474V3.15789H0V12H12V5.68421H8ZM2.66667 10.7368H1.33333V9.47368H2.66667V10.7368ZM2.66667 8.21053H1.33333V6.94737H2.66667V8.21053ZM2.66667 5.68421H1.33333V4.42105H2.66667V5.68421ZM6.66667 10.7368H5.33333V9.47368H6.66667V10.7368ZM6.66667 8.21053H5.33333V6.94737H6.66667V8.21053ZM6.66667 5.68421H5.33333V4.42105H6.66667V5.68421ZM6.66667 3.15789H5.33333V1.89474H6.66667V3.15789ZM10.6667 10.7368H9.33333V9.47368H10.6667V10.7368ZM10.6667 8.21053H9.33333V6.94737H10.6667V8.21053Z" fill="#BAB7B7"/>
</svg>
