<?xml version="1.0" encoding="utf-8"?>
<!-- Generator: Adobe Illustrator 16.0.0, SVG Export Plug-In . SVG Version: 6.00 Build 0)  -->
<!DOCTYPE svg PUBLIC "-//W3C//DTD SVG 1.1//EN" "http://www.w3.org/Graphics/SVG/1.1/DTD/svg11.dtd">
<svg version="1.1" id="Layer_1" xmlns="http://www.w3.org/2000/svg" xmlns:xlink="http://www.w3.org/1999/xlink" x="0px" y="0px"
	  viewBox="0 0 460 195" enable-background="new 0 0 460 195" xml:space="preserve">
<g>
	<g id="UTS_Logo_Horizontal_Lock-Up">
		<g>
			<polygon points="268.891,69.026 296.785,69.026 296.785,174.596 325.322,174.596 325.322,69.026 353.217,69.026 353.217,43.707 
				268.891,43.707 			"/>
			<path d="M215.248,134.149c0,10.514-6.223,17.165-15.985,17.165c-9.978,0-15.985-6.544-15.985-17.165V43.707h-28.539v90.871
				c0,25.963,17.917,42.056,44.417,42.056c26.499,0,44.416-16.2,44.416-42.056V43.707h-28.538v90.442H215.248z"/>
			<path d="M427.029,96.921l-16.308-6.223c-9.012-3.433-10.514-9.119-10.514-12.981c0-7.188,5.149-12.552,14.376-12.552
				c9.013,0,14.913,6.008,14.913,15.342v3.54h26.714v-3.004c0-24.354-16.736-39.481-41.627-39.481
				c-26.07,0-41.305,17.917-41.305,37.872c0,19.097,9.978,30.469,28.86,37.657l18.346,6.973c8.153,3.219,11.372,7.617,11.372,14.162
				c0,9.119-6.008,14.591-16.736,14.591s-17.381-4.935-17.381-15.556v-4.721h-26.928v4.613c0,24.354,18.774,39.48,44.309,39.48
				c27.894,0,43.879-16.951,43.879-41.09C458.894,111.404,443.337,103.036,427.029,96.921z"/>
			
				<rect x="8.828" y="88.916" transform="matrix(-0.7071 0.7071 -0.7071 -0.7071 99.0517 154.291)" width="17.487" height="17.487"/>
			<path d="M57.753,100.568l9.441,9.441l12.337-12.338l-12.66-12.659c-5.042-5.043-13.303-5.043-18.346,0L5.183,128.355
				l12.338,12.338L57.753,100.568z"/>
			<path d="M54.749,153.138l-12.338-12.337l-9.441,9.44l-9.441-9.44l-12.338,12.337l12.66,12.66c5.042,5.043,13.304,5.043,18.346,0
				L54.749,153.138z"/>
			<path d="M57.753,174.917l-9.441-9.441l-12.338,12.338l12.552,12.66c5.042,5.043,13.303,5.043,18.346,0l12.66-12.66
				l-12.337-12.338L57.753,174.917z"/>
			<path d="M82.536,150.134l-9.441-9.44l-12.338,12.338l12.66,12.659c5.042,5.043,13.304,5.043,18.346,0l12.66-12.659
				l-12.445-12.338L82.536,150.134z"/>
			
				<rect x="89.074" y="119.591" transform="matrix(-0.7071 0.7071 -0.7071 -0.7071 257.7308 149.9143)" width="17.487" height="17.487"/>
			<path d="M57.753,125.352l-9.441-9.441l-12.338,12.338l12.66,12.659c5.042,5.043,13.303,5.043,18.346,0l43.343-43.343
				L97.985,85.227L57.753,125.352z"/>
			<rect x="46.073" y="6.681" transform="matrix(-0.7073 0.707 -0.707 -0.7073 111.615 -9.467)" width="23.389" height="23.389"/>
			<path d="M37.154,55.938h11.801v23.495c5.364-3.219,12.123-3.219,17.487,0V55.938h11.802l7.725,7.724l16.522-16.521L85.969,30.619
				l-7.725,7.724h-41.09l-7.725-7.724L12.8,47.248L29.322,63.77L37.154,55.938z"/>
		</g>
	</g>
	<g id="Guides" display="none">
	</g>
</g>
</svg>
