<?xml version="1.0" encoding="utf-8"?>
<!-- Generator: Adobe Illustrator 26.0.3, SVG Export Plug-In . SVG Version: 6.00 Build 0)  -->
<svg version="1.1" id="Layer_1" xmlns="http://www.w3.org/2000/svg" xmlns:xlink="http://www.w3.org/1999/xlink" x="0px" y="0px"
	 viewBox="0 0 322.22 256.79" style="enable-background:new 0 0 322.22 256.79;" xml:space="preserve">
<style type="text/css">
	.st0{fill:#A4BAE0;}
	.st1{fill:#F8A391;}
	.st2{fill:#EC2027;}
	.st3{fill:#895447;}
	.st4{fill:#392869;}
	.st5{fill:#F79520;}
	.st6{fill:#D3A486;}
	.st7{fill:#FFFFFF;}
</style>
<g>
	<g id="XMLID_1449_">
		<g id="XMLID_65_">
			<path id="XMLID_66_" class="st0" d="M156.67,193.07h-24.26c-16.72,0-30.27-13.55-30.27-30.27v0c0-16.72,13.55-30.27,30.27-30.27
				h24.26c16.72,0,30.27,13.55,30.27,30.27v0C186.94,179.52,173.38,193.07,156.67,193.07z"/>
			<path id="XMLID_63_" class="st0" d="M160.51,152.8H86.48c-16.72,0-30.27-13.55-30.27-30.27v0c0-16.72,13.55-30.27,30.27-30.27
				h74.02c16.72,0,30.27,13.55,30.27,30.27v0C190.77,139.25,177.22,152.8,160.51,152.8z"/>
			<path id="XMLID_67_" class="st1" d="M206.36,153.04h-33.79c-23.28,0-42.16-18.87-42.16-42.16v0c0-23.28,18.87-42.16,42.16-42.16
				h33.79c23.28,0,42.16,18.87,42.16,42.16v0C248.52,134.17,229.64,153.04,206.36,153.04z"/>
			<path id="XMLID_159_" class="st0" d="M202.97,194.09h-0.04c-6.16,0-11.16-5-11.16-11.16v0c0-6.16,5-11.16,11.16-11.16h0.04
				c6.16,0,11.16,5,11.16,11.16v0C214.12,189.1,209.13,194.09,202.97,194.09z"/>
			<path id="XMLID_161_" class="st0" d="M241,169.2h-0.02c-3.49,0-6.32-2.83-6.32-6.32v0c0-3.49,2.83-6.32,6.32-6.32H241
				c3.49,0,6.32,2.83,6.32,6.32v0C247.31,166.38,244.48,169.2,241,169.2z"/>
			<path id="XMLID_162_" class="st0" d="M112.64,72.79L112.64,72.79c0-2.52,2.04-4.55,4.55-4.55h0.28c2.52,0,4.55,2.04,4.55,4.55v0
				c0,2.52-2.04,4.55-4.55,4.55h-0.28C114.68,77.34,112.64,75.31,112.64,72.79z"/>
			<path id="XMLID_192_" class="st0" d="M82.23,170.75L82.23,170.75c0-2.52,2.04-4.55,4.55-4.55h0.28c2.52,0,4.55,2.04,4.55,4.55v0
				c0,2.52-2.04,4.55-4.55,4.55h-0.28C84.27,175.31,82.23,173.27,82.23,170.75z"/>
			<path id="XMLID_1179_" class="st0" d="M54.85,155.92L54.85,155.92c0-1.45,1.18-2.63,2.63-2.63h0.16c1.45,0,2.63,1.18,2.63,2.63
				l0,0c0,1.45-1.18,2.63-2.63,2.63h-0.16C56.03,158.55,54.85,157.37,54.85,155.92z"/>
			<path id="XMLID_1180_" class="st0" d="M246.53,71.97L246.53,71.97c0-2.2,1.78-3.98,3.98-3.98h0.25c2.2,0,3.98,1.78,3.98,3.98v0
				c0,2.2-1.78,3.98-3.98,3.98h-0.25C248.31,75.95,246.53,74.17,246.53,71.97z"/>
			<path id="XMLID_160_" class="st1" d="M265.71,107.3L265.71,107.3c-5.49,0-9.95-4.45-9.95-9.95v0c0-5.49,4.45-9.95,9.95-9.95h0
				c5.49,0,9.95,4.45,9.95,9.95v0C275.66,102.84,271.21,107.3,265.71,107.3z"/>
		</g>
		<g id="XMLID_993_">
			<path class="st2" d="M99.33,129.8c0,0,0.09,4.92,2.81,9.93s6.09,8.61,6.09,8.61l-3.09,6.58l-6.1,7.92l-0.36,1.44l3.17,3
				l8.59-8.44l0.27,1.13l0,13.32l2.2,1.59l2.72-1.19l3.79-11.35l1.32-8.87l-0.82-4.02l1.03-0.56l4.03-11.07l-0.93-10.44
				C124.03,127.36,110.47,134.26,99.33,129.8z"/>
			<g>
				<path class="st3" d="M105.89,88.67c0,0-8.1,3.64,1.87,10.2c0,0,1.87,1.41,3.8,1.05c1.94-0.35,6.84-5.05,2.09-12.73L105.89,88.67
					z"/>
				<path class="st3" d="M131.41,113.91c0,0,5.22-0.84,5.1,0.76c-0.12,1.6-3.21,2.82-5.5,3.08L131.41,113.91z"/>
				<path class="st3" d="M87.31,127.12l2.41,0.8c0,0,2.79,5.01,0.73,5.34S85.96,132.15,87.31,127.12z"/>
				<path class="st3" d="M99.15,164.58c0,0-4.08,4.05,1.33,7.19c0,0,1.8,0.77,2.07-4.63L99.15,164.58z"/>
				<path class="st3" d="M111.84,173.64l1.97,0.86l0.76-0.25c0,0,3.4,3.25,2.74,5.91c0,0-1.84,1.36-4.17-1.08
					C110.82,176.66,110.62,176.19,111.84,173.64z"/>
			</g>
			<g id="XMLID_372_">
				<g id="XMLID_446_">
					<path id="XMLID_449_" class="st1" d="M130.91,114.22c0.22,0.32,0.31,0.72,0.24,1.13l-0.23,1.27c-0.05,0.28-0.18,0.53-0.35,0.73
						c-0.25,0.28-0.6,0.47-0.99,0.52c-1.93,0.21-3.93,0.18-5.86-0.14c-0.6-2.84-1.38-5.81-2.39-8.62c2,1.65,4.18,3.05,6.6,3.9
						c0.67,0.23,1.36,0.42,2.06,0.58C130.38,113.67,130.71,113.91,130.91,114.22z"/>
					<path id="XMLID_448_" class="st1" d="M124.95,125.03c0.12,0.89-0.24,1.78-0.91,2.33c-0.17,0.15-0.37,0.27-0.58,0.37
						c-9.39,4.23-18.25,4.09-24.13,2.07c-0.05-0.01-0.1-0.04-0.15-0.05c-2.56-0.91,0.33-10.21,1.58-16.42
						c-4.4,2.39-7.98,7.63-9.65,12.37c-0.2,0.56-0.37,1.12-0.53,1.69c-0.09,0.39-0.48,0.61-0.86,0.52
						c-0.01-0.01-0.04-0.01-0.05-0.01l-2.28-0.75l-0.08-0.03c-0.31-0.1-0.51-0.39-0.5-0.71c0.16-3.3,1.24-7.7,2.34-10.84
						c2.8-7.98,8.53-14.92,16.43-18.23c0.3,0.25,0.61,0.5,0.95,0.74c2.94,2.1,5.78,2.66,7.88-0.28c0.01-0.02,0.04-0.04,0.05-0.07
						c3.01,2.66,5.23,6.83,6.86,11.39c1.01,2.81,1.79,5.78,2.39,8.62C124.26,120.33,124.66,122.83,124.95,125.03z"/>
					<path id="XMLID_447_" class="st4" d="M113.14,85.74c3.31,2.37,3,3.74,1.7,4.5c-1.22,0.71-3.3,0.89-4.15,0.85
						c-2.05-0.11-4.12-0.34-5.43-1.73c-0.81,0.64-2.02,2.43-2.09,4.62c-0.01,0.2-0.01,0.42,0.01,0.63
						c-1.41-1.64-1.43-3.34-0.25-4.99c0,0-1.21-0.13-1.86-0.6c-1.94-1.39-1.45-4.27-0.17-6.06c1.97-2.76,5.23-3.11,7.55-1.46
						c1.04,0.75,1.8,1.88,1.94,3.29C111.42,84.82,112.35,85.18,113.14,85.74z"/>
				</g>
				<g id="XMLID_435_">
					<g id="XMLID_445_">
						<path id="XMLID_3955_" class="st4" d="M110.9,100.41c-1.28,0-2.84-0.51-4.71-1.85c-0.31-0.22-0.63-0.47-0.98-0.76
							c-1.37-1.18-2.24-2.4-2.61-3.66c-0.38-1.26-0.26-2.56,0.36-3.85c0.14-0.3,0.5-0.42,0.79-0.28c0.3,0.14,0.42,0.5,0.28,0.79
							c-0.49,1.02-0.58,2.02-0.29,3c0.3,1.03,1.06,2.07,2.24,3.09c0.32,0.27,0.62,0.5,0.91,0.71c4.12,2.94,6,1.33,7.05-0.14
							c0-0.01,0.02-0.02,0.03-0.03c0.01-0.01,0.01-0.02,0.02-0.03c0.62-0.9,1.9-3.37,0.32-6.9c-0.46-1.02-1.11-2.04-1.94-3.03
							c-0.21-0.25-0.18-0.63,0.08-0.84c0.25-0.21,0.63-0.18,0.84,0.08c0.9,1.08,1.61,2.19,2.12,3.31c1.29,2.87,1.14,5.8-0.41,8.05
							c-0.03,0.05-0.06,0.08-0.07,0.1C114.05,99.33,112.76,100.41,110.9,100.41z"/>
					</g>
					<g id="XMLID_444_">
						<path id="XMLID_3954_" class="st4" d="M108.05,131.76c-3.17,0-6.2-0.46-8.91-1.39c-0.02,0-0.06-0.02-0.11-0.04
							c0,0-0.04-0.01-0.04-0.02c-2.53-0.89-1.17-6.75,0.27-12.94c0.23-0.98,0.44-1.92,0.64-2.81c-3.43,2.34-6.57,6.64-8.22,11.34
							c-0.18,0.5-0.35,1.04-0.52,1.66c-0.08,0.32-0.29,0.61-0.59,0.79c-0.3,0.18-0.65,0.23-0.99,0.15c-0.01,0-0.02,0-0.03-0.01
							c-0.03-0.01-0.05-0.01-0.08-0.03l-2.36-0.78c-0.54-0.18-0.91-0.72-0.89-1.3c0.18-3.63,1.39-8.2,2.38-11.01
							c3.03-8.62,9.14-15.39,16.76-18.58c0.3-0.13,0.65,0.02,0.78,0.32c0.13,0.3-0.02,0.65-0.32,0.78
							c-7.31,3.06-13.18,9.57-16.1,17.87c-0.96,2.73-2.14,7.17-2.31,10.67c0,0.05,0.04,0.1,0.09,0.12l0.1,0.03l2.25,0.74
							c0.01,0,0.02,0.01,0.04,0.01c0.03,0,0.06-0.01,0.08-0.02c0.03-0.02,0.04-0.04,0.05-0.07c0.19-0.66,0.37-1.23,0.55-1.75
							c1.46-4.16,4.94-9.99,9.93-12.69c0.2-0.11,0.45-0.09,0.64,0.04c0.19,0.14,0.28,0.37,0.23,0.6c-0.26,1.3-0.59,2.7-0.93,4.19
							c-1.02,4.39-2.55,11.01-1.03,11.55l0.06,0.02c0.02,0.01,0.03,0.01,0.05,0.02c6.82,2.34,15.68,1.57,23.72-2.05
							c0.16-0.07,0.31-0.17,0.43-0.27c0.53-0.44,0.8-1.13,0.71-1.8c-0.32-2.47-0.73-4.91-1.23-7.25c-0.66-3.12-1.45-6-2.37-8.54
							c-1.81-5.07-4.06-8.82-6.69-11.14c-0.25-0.22-0.27-0.59-0.05-0.84c0.22-0.25,0.59-0.27,0.84-0.05
							c2.78,2.46,5.14,6.37,7.03,11.63c0.93,2.59,1.74,5.52,2.41,8.7c0.5,2.38,0.92,4.85,1.24,7.34c0.14,1.08-0.29,2.17-1.12,2.86
							c-0.2,0.17-0.44,0.33-0.71,0.45C118.58,130.58,113.13,131.76,108.05,131.76z"/>
					</g>
					<g id="XMLID_443_">
						<path id="XMLID_3953_" class="st4" d="M89.83,134c-0.28,0-0.57-0.05-0.84-0.15c-1.83-0.64-3.5-2.83-2.16-6.9
							c0.1-0.31,0.44-0.48,0.75-0.38c0.31,0.1,0.48,0.44,0.38,0.75c-1.07,3.24,0.04,4.92,1.43,5.4c0.28,0.1,0.61,0.1,0.81,0.01
							c0.1-0.05,0.13-0.1,0.14-0.14c0.22-0.64-0.62-2.95-1.07-4.19l-0.11-0.29c-0.11-0.31,0.05-0.65,0.36-0.76
							c0.31-0.11,0.65,0.05,0.76,0.36l0.11,0.29c0.81,2.24,1.41,4.03,1.07,5c-0.13,0.36-0.39,0.65-0.75,0.82
							C90.45,133.94,90.14,134,89.83,134z"/>
					</g>
					<g id="XMLID_442_">
						<path id="XMLID_3952_" class="st4" d="M127.1,118.61c-1.19,0-2.35-0.09-3.49-0.28c-0.32-0.05-0.54-0.36-0.49-0.68
							c0.05-0.32,0.36-0.54,0.68-0.49c1.82,0.3,3.74,0.35,5.7,0.13c0.24-0.03,0.45-0.14,0.61-0.32c0.11-0.13,0.18-0.28,0.21-0.45
							l0.23-1.27c0.04-0.24-0.01-0.49-0.15-0.69c-0.13-0.2-0.32-0.33-0.55-0.38c-0.75-0.16-1.46-0.36-2.14-0.6
							c-2.27-0.8-4.49-2.11-6.79-4c-0.25-0.21-0.29-0.58-0.08-0.84c0.21-0.25,0.58-0.29,0.84-0.08c2.19,1.8,4.29,3.05,6.42,3.8
							c0.63,0.22,1.3,0.41,1.99,0.56c0.53,0.11,1.01,0.43,1.3,0.89c0.3,0.44,0.42,1,0.32,1.55l-0.23,1.27
							c-0.07,0.37-0.24,0.72-0.48,1.01c-0.36,0.41-0.84,0.66-1.38,0.72C128.78,118.56,127.94,118.61,127.1,118.61z"/>
					</g>
					<g id="XMLID_441_">
						<path id="XMLID_3951_" class="st4" d="M132,118.11c-0.49,0-1.02-0.05-1.57-0.18c-0.32-0.07-0.52-0.39-0.45-0.71
							c0.07-0.32,0.39-0.52,0.71-0.45c3.13,0.69,4.92-1.18,5.12-1.74c0.03-0.1,0.03-0.18-0.01-0.27c-0.09-0.2-0.36-0.4-0.67-0.5
							c-0.72-0.25-2.62-0.19-3.94,0.49c-0.29,0.15-0.65,0.03-0.8-0.26c-0.15-0.29-0.03-0.65,0.26-0.8c1.57-0.81,3.79-0.93,4.88-0.55
							c0.62,0.22,1.11,0.62,1.35,1.11c0.18,0.38,0.2,0.79,0.06,1.18C136.61,116.35,134.82,118.11,132,118.11z"/>
					</g>
					<g id="XMLID_440_">
						<path id="XMLID_3950_" class="st4" d="M113.75,175.01c-0.29,0-0.57-0.04-0.85-0.13l-0.88-0.28c-0.46-0.15-0.86-0.4-1.18-0.72
							c-0.54-0.55-0.84-1.28-0.82-2.05c0.03-1.61,0.14-3.22,0.25-4.78c0.19-2.68,0.38-5.45,0.15-8.21c-0.11-1.38-0.33-2.7-0.67-4.02
							c-0.53-2.05-1.37-4.07-2.63-6.35c-0.98-1.77-2.09-3.46-3.16-5.08c-2.91-4.42-5.65-8.59-5.24-13.63
							c0.03-0.33,0.31-0.57,0.64-0.54c0.33,0.03,0.57,0.31,0.54,0.64c-0.38,4.63,2.26,8.64,5.05,12.88c1.08,1.65,2.2,3.35,3.21,5.16
							c1.31,2.37,2.17,4.47,2.74,6.62c0.36,1.39,0.59,2.77,0.7,4.22c0.24,2.85,0.04,5.66-0.15,8.39c-0.11,1.55-0.22,3.15-0.25,4.73
							c-0.01,0.45,0.16,0.87,0.48,1.19c0.18,0.19,0.42,0.33,0.69,0.42l0.88,0.28c0.5,0.16,1.05,0.06,1.47-0.26
							c0.26-0.19,0.46-0.44,0.57-0.75c0.51-1.33,1.04-2.76,1.54-4.19c2.71-7.69,3.4-12.58,2.57-18.02
							c-0.54-3.52-1.76-7.42-3.97-12.66c-0.13-0.3,0.01-0.65,0.32-0.78c0.3-0.13,0.65,0.01,0.78,0.32c2.25,5.33,3.5,9.32,4.05,12.94
							c0.87,5.66,0.16,10.7-2.62,18.6c-0.51,1.44-1.05,2.87-1.55,4.21c-0.2,0.52-0.54,0.96-0.98,1.28
							C114.95,174.81,114.36,175.01,113.75,175.01z"/>
					</g>
					<g id="XMLID_439_">
						<path id="XMLID_3949_" class="st4" d="M116.43,181.17c-0.36,0-0.78-0.08-1.26-0.25c-1.58-0.55-5.73-3.51-4.47-7.62
							c0.1-0.31,0.43-0.49,0.74-0.39c0.31,0.1,0.49,0.43,0.39,0.74c-1.09,3.55,3.06,5.92,3.73,6.15c0.77,0.27,1.06,0.19,1.11,0.13
							c0.14-0.17,0.42-1.08-2.09-5.67c-0.16-0.29-0.05-0.65,0.24-0.81c0.29-0.16,0.65-0.05,0.81,0.24c2.2,4.02,2.77,6.06,1.96,7.01
							C117.31,181.01,116.93,181.17,116.43,181.17z"/>
					</g>
					<g id="XMLID_438_">
						<path id="XMLID_3948_" class="st4" d="M120,151.03c-0.11,0-0.22-0.03-0.31-0.09c-0.28-0.17-0.36-0.54-0.19-0.82
							c1.19-1.91,2.17-3.96,2.92-6.09c1.89-5.35,2.25-11.07,1.04-16.55c-0.07-0.32,0.13-0.64,0.45-0.71
							c0.32-0.07,0.64,0.13,0.71,0.45c1.25,5.69,0.88,11.64-1.08,17.2c-0.78,2.21-1.8,4.34-3.03,6.32
							C120.39,150.93,120.2,151.03,120,151.03z"/>
					</g>
					<g id="XMLID_437_">
						<path id="XMLID_3947_" class="st4" d="M101.84,167.28c-0.56,0-1.1-0.23-1.5-0.65l-1.11-1.16c-0.32-0.32-0.51-0.73-0.56-1.19
							c-0.07-0.48,0.06-1.01,0.36-1.44c2.78-3.91,5.88-8.44,7.43-12.84c0.23-0.65,0.44-1.31,0.62-1.98c0.09-0.32,0.42-0.5,0.73-0.41
							c0.32,0.09,0.5,0.42,0.41,0.73c-0.19,0.69-0.41,1.38-0.65,2.05c-1.6,4.54-4.75,9.16-7.58,13.13c-0.13,0.18-0.18,0.4-0.15,0.62
							c0.02,0.21,0.1,0.37,0.23,0.5l1.13,1.18c0.24,0.26,0.61,0.34,0.94,0.22c0.09-0.03,0.17-0.08,0.23-0.13
							c3.25-2.67,5.93-5.13,8.22-7.52c0.23-0.24,0.6-0.25,0.84-0.02c0.24,0.23,0.25,0.6,0.02,0.84c-2.32,2.43-5.03,4.92-8.31,7.61
							c-0.16,0.14-0.37,0.26-0.6,0.34C102.32,167.24,102.08,167.28,101.84,167.28z"/>
					</g>
					<g id="XMLID_436_">
						<path id="XMLID_3946_" class="st4" d="M100.43,172.37c-0.24,0-0.47-0.04-0.69-0.12c-1.79-0.64-3.29-3.77-2.43-6.22
							c0.3-0.85,0.82-1.61,1.55-2.25c0.25-0.22,0.62-0.19,0.84,0.05c0.22,0.25-1.03,1.93-1.27,2.59c-0.66,1.88,0.58,4.31,1.7,4.71
							c0.57,0.2,1.07-0.16,1.36-0.98c0.28-0.81,0.38-2.06,0.27-3.51c-0.03-0.33,0.22-0.61,0.55-0.64c0.33-0.03,0.61,0.22,0.64,0.55
							c0.09,1.14,0.1,2.77-0.33,4C102.16,171.84,101.28,172.37,100.43,172.37z"/>
					</g>
				</g>
			</g>
		</g>
		<g id="XMLID_1506_">
			<path class="st5" d="M198.7,138.01c0,0-2.22,20.97,11.78,27.07c0,0,1.86,8.49,10.7,6.7c8.85-1.78,13.17-4.03,13.17-4.03l0.8-1.17
				c0,0,0.92-2.83-4.5-2.83l-4.47-1.31l6.17-1.97l1.55-1.18l-0.44-2.25c0,0-3.91-2.83-10.99-0.68c0,0,0.98-7.48,0.66-9.79
				l-0.69-0.48C222.45,146.08,212.84,146.27,198.7,138.01z"/>
			<g>
				<g>
					<path class="st6" d="M183.98,109.87c0,0-4,3.38,2.25,7.07l1.67-2.18L183.98,109.87z"/>
					<path class="st6" d="M218.94,135.08l-4.09-0.48c0,0-0.76,1.52,0.93,2.57c1.7,1.05,3.86-0.43,3.86-0.43L218.94,135.08z"/>
					<path class="st6" d="M233.28,156.57c0,0,1.95-1.45,4.14,0.61c2.19,2.06,3.57,3,3.57,3l-0.69,1l-6.52-1.25L233.28,156.57z"/>
					<polygon class="st6" points="234.38,165.03 235.8,164 237.68,165.03 240.98,169.2 241.07,170.25 240.04,170.88 234.98,168.09 
						235.05,165.07 					"/>
					<path class="st6" d="M213.56,95.25l-6.64,8.8l4.04,7.01l5.21,1.33c0,0,7.5-2.57,4.88-8.95S213.56,95.25,213.56,95.25z"/>
				</g>
			</g>
			<g id="XMLID_125_">
				<g id="XMLID_1109_">
					<path id="XMLID_1124_" class="st0" d="M188.87,114.42c4.5,1.37,9.22,1.22,13.72,0.16c-1.49,2.42-2.95,6.01-4.14,9.55
						c-4.39-0.97-9.03-3.66-11.31-6c-0.14-0.14-0.28-0.29-0.41-0.43c-0.17-0.19-0.26-0.44-0.23-0.69c0.01-0.13,0.06-0.28,0.13-0.4
						c0.35-0.5,0.85-1.24,1.19-1.76c0.03-0.03,0.05-0.06,0.07-0.09C188.11,114.44,188.51,114.32,188.87,114.42z"/>
					<path id="XMLID_1118_" class="st0" d="M219.64,136.74c-0.02-0.04-0.05-0.08-0.07-0.13l-0.53-1.1
						c-0.08-0.14-0.11-0.29-0.11-0.44c-0.98,0-2.57-0.3-3.34-0.46c-0.38-0.08-0.74,0.17-0.78,0.55c-0.06,0.66,0.43,1.46,0.96,2.01
						C216.71,138.12,218.33,137.54,219.64,136.74z M224.98,135.63c0.31,3.17,0.03,6.39-0.63,9.5c-0.13,0.44-0.62,0.72-1.34,0.85
						c-4.51,0.83-19.06-4.11-24.83-8.31c-1.92-1.22-2.56-2.38-2.3-3.32c0.23-2.15,1.21-6.16,2.57-10.21
						c1.18-3.54,2.65-7.13,4.14-9.55c0.54-0.88,1.09-1.61,1.62-2.13c0.13-0.12,0.25-0.23,0.38-0.34c0.35-0.31,0.7-0.6,1.08-0.87
						c0.15-0.11,0.32-0.22,0.47-0.32c0.18-0.13,0.38-0.24,0.57-0.35c0.46-0.27,0.94-0.51,1.43-0.72c0.22-0.1,0.44-0.19,0.67-0.27
						c0.55-0.21,1.12-0.38,1.69-0.53c0.24,0.68,0.55,1.22,0.88,1.57c1.63,1.66,4.54,1.48,6.34-0.28c0.39-0.38,0.72-0.83,0.99-1.32
						c0.47,0.1,0.93,0.22,1.4,0.36c0.08,0.02,0.15,0.05,0.23,0.08c0.27,0.08,0.54,0.17,0.81,0.27c0.05,0.01,0.11,0.03,0.15,0.05
						c0.21,0.08,0.41,0.16,0.63,0.25c0.44,0.17,0.88,0.37,1.32,0.59c0.22,0.11,0.43,0.21,0.64,0.33c0.38,0.19,0.76,0.41,1.13,0.64
						c0.28,0.16,0.55,0.35,0.83,0.54c0.01,0,0.02,0,0.02,0.01c0.29,0.19,0.58,0.39,0.87,0.62c0.32,0.24,0.63,0.49,0.94,0.76
						c0.22,0.18,0.44,0.38,0.65,0.58c0.31,0.28,0.61,0.57,0.89,0.87c1.01,1.03,1.77,2.1,2.31,3.18c2.84,5.6,0.01,11.64-3.8,15.36
						C226.9,134.32,225.98,135.03,224.98,135.63z"/>
					<path id="XMLID_1117_" class="st7" d="M218.73,109.04c-0.02,0-0.03,0-0.04,0H218.73z"/>
					<path id="XMLID_1112_" class="st4" d="M212.59,98.55c-3.05,2.96-3.06,7.81-2.09,10.52c-0.58,0.14-1.14,0.32-1.69,0.53
						c-0.23,0.08-0.45,0.17-0.67,0.27c-0.49,0.21-0.97,0.45-1.43,0.72c-0.19,0.11-0.38,0.22-0.57,0.35
						c-0.16,0.11-0.32,0.21-0.47,0.32c-0.38,0.27-0.73,0.56-1.08,0.87c-0.61-0.33-1.15-0.75-1.63-1.24
						c-2.63-2.7-2.47-6.64,0.17-9.21c1.59-1.55,3.85-2.39,6.04-2.59c-0.13-1.62,0.62-3.13,1.77-4.25c3-2.92,6.9-1.75,8.86,0.26
						c5.02,5.15,3.84,0.1,8.56,4.94c3.68,3.78,1.48,6.25,1.48,6.25c0.02,0.02,0.04,0.03,0.07,0.03c1.12,0.26,2.08,0.83,2.83,1.61
						c2.39,2.46,2.63,6.64-0.33,9.51c-0.27,0.26-0.56,0.51-0.87,0.72c-0.54-1.09-1.3-2.15-2.31-3.18c-0.29-0.3-0.59-0.59-0.89-0.87
						c-0.21-0.2-0.43-0.39-0.65-0.58c-0.31-0.27-0.63-0.52-0.94-0.76c-0.28-0.21-0.57-0.42-0.87-0.62c0-0.01-0.01-0.01-0.02-0.01
						c-0.27-0.19-0.55-0.38-0.83-0.54c-0.37-0.23-0.74-0.45-1.13-0.64c-0.21-0.12-0.43-0.23-0.64-0.33
						c-0.43-0.22-0.88-0.41-1.32-0.59c-0.21-0.09-0.41-0.17-0.63-0.25c-0.05-0.02-0.11-0.04-0.15-0.05
						c-0.27-0.11-0.54-0.19-0.81-0.27c-0.08-0.03-0.15-0.06-0.23-0.08c-0.47-0.14-0.93-0.26-1.39-0.37
						c0.99-1.79,1.18-4.13,0.94-6.11c-1.86,0.98-3.72,0.16-4.95-1.09C212.19,99.24,214.22,96.97,212.59,98.55z"/>
					<path id="XMLID_1111_" class="st4" d="M208.81,109.6c-0.23,0.08-0.45,0.17-0.67,0.27C208.36,109.78,208.58,109.68,208.81,109.6
						z"/>
				</g>
				<g id="XMLID_515_">
					<g id="XMLID_1108_">
						<path id="XMLID_3945_" class="st4" d="M220.56,137.83c-0.56,0-1.09-0.28-1.41-0.76c-0.01-0.02-0.03-0.04-0.04-0.06
							c-0.03-0.05-0.06-0.1-0.08-0.15l-0.52-1.08c-0.11-0.2-0.16-0.44-0.16-0.7c-0.02-0.54,0.25-1.07,0.7-1.39
							c0.14-0.1,0.25-0.19,0.31-0.25c2.39-2.09,3.58-3.89,3.64-5.5c0.08-2.12-1.72-3.97-4.01-6.31l-0.09-0.1
							c-0.85-0.89-1.92-1.74-3.19-2.53c-0.28-0.17-0.36-0.54-0.19-0.82c0.17-0.28,0.54-0.36,0.82-0.19
							c1.35,0.84,2.49,1.75,3.41,2.71l0.09,0.09c2.39,2.45,4.45,4.56,4.35,7.19c-0.08,1.98-1.37,4-4.05,6.35
							c-0.08,0.07-0.22,0.19-0.4,0.32c-0.13,0.09-0.21,0.25-0.2,0.4c0,0.1,0.01,0.14,0.04,0.18l0.54,1.12
							c0.01,0.01,0.01,0.03,0.02,0.04c0.01,0.01,0.01,0.02,0.02,0.03c0.12,0.17,0.32,0.24,0.52,0.2c1.4-0.28,2.76-0.79,4.02-1.52
							c0.28-0.16,0.65-0.07,0.81,0.22c0.16,0.28,0.07,0.65-0.22,0.81c-1.38,0.8-2.85,1.36-4.39,1.66
							C220.78,137.82,220.67,137.83,220.56,137.83z"/>
					</g>
					<g id="XMLID_1097_">
						<path id="XMLID_3944_" class="st4" d="M198.22,138.25c-0.12,0-0.25-0.04-0.35-0.11c-2-1.47-2.84-2.74-2.55-3.9
							c0.25-2.3,1.29-6.43,2.58-10.29c1.35-4.03,2.84-7.47,4.19-9.67c0.56-0.91,1.63-2.15,1.67-2.2c0.02-0.02,0.03-0.04,0.05-0.05
							c0,0,0.47-0.42,0.6-0.53c0.25-0.21,0.63-0.18,0.84,0.07c0.21,0.25,0.18,0.63-0.07,0.84c-0.1,0.09-0.44,0.39-0.54,0.48
							c-0.16,0.19-1.07,1.27-1.54,2.02c-1.31,2.13-2.76,5.48-4.08,9.43c-1.28,3.82-2.29,7.88-2.53,10.09c0,0.03-0.01,0.06-0.02,0.09
							c-0.08,0.28-0.03,1.11,2.1,2.67c0.26,0.19,0.32,0.57,0.13,0.83C198.58,138.17,198.4,138.25,198.22,138.25z"/>
					</g>
					<g id="XMLID_1095_">
						<path id="XMLID_3943_" class="st4" d="M221.89,146.66c-5.59,0-18.48-4.46-24.02-8.51c-0.26-0.19-0.32-0.57-0.13-0.83
							c0.19-0.26,0.57-0.32,0.83-0.13c5.7,4.17,20.04,9,24.35,8.2c0.47-0.08,0.78-0.23,0.85-0.42c0.68-3.27,0.89-6.4,0.61-9.29
							c-0.02-0.23,0.09-0.45,0.29-0.57c0.95-0.56,1.84-1.25,2.65-2.03c3.43-3.35,6.45-9.2,3.68-14.66c-0.15-0.29-0.03-0.65,0.26-0.8
							c0.29-0.15,0.65-0.03,0.8,0.26c3.06,6.04-0.2,12.42-3.91,16.05c-0.79,0.76-1.64,1.43-2.55,2c0.24,2.92,0.02,6.05-0.67,9.31
							c0,0.02-0.01,0.03-0.01,0.05c-0.14,0.46-0.56,1.05-1.78,1.26C222.78,146.63,222.36,146.66,221.89,146.66z"/>
					</g>
					<g id="XMLID_869_">
						<path id="XMLID_3942_" class="st4" d="M217.03,138.26c-0.67,0-1.24-0.22-1.67-0.67c-0.29-0.3-1.23-1.37-1.13-2.48
							c0.04-0.35,0.21-0.66,0.49-0.86c0.29-0.21,0.65-0.29,1-0.22c1.02,0.22,2.4,0.45,3.22,0.45c0.33,0,0.59,0.27,0.59,0.59
							s-0.27,0.59-0.59,0.59c-1.14,0-2.94-0.36-3.46-0.47c-0.03-0.01-0.05,0.01-0.05,0.01c-0.04,0.4,0.28,1.03,0.79,1.55
							c0.76,0.78,2.43-0.11,3.12-0.53c0.28-0.17,0.65-0.08,0.82,0.2c0.17,0.28,0.08,0.65-0.2,0.82
							C218.85,137.92,217.86,138.26,217.03,138.26z"/>
					</g>
					<g id="XMLID_868_">
						<path id="XMLID_3941_" class="st4" d="M198.46,124.73c-0.04,0-0.09,0-0.13-0.01c-4.68-1.04-9.38-3.89-11.61-6.17
							c-0.14-0.14-0.28-0.29-0.42-0.44c-0.3-0.33-0.43-0.75-0.39-1.17c0.01-0.2,0.09-0.44,0.22-0.65c0.36-0.52,0.86-1.26,1.2-1.78
							c0.02-0.03,0.05-0.06,0.07-0.09c0.35-0.52,1-0.76,1.63-0.58c4.08,1.24,8.6,1.29,13.42,0.16c0.32-0.07,0.64,0.12,0.71,0.44
							c0.08,0.32-0.12,0.64-0.44,0.71c-5.03,1.18-9.75,1.12-14.03-0.17c-0.1-0.03-0.23-0.01-0.3,0.1c-0.03,0.04-0.06,0.08-0.09,0.12
							c-0.35,0.52-0.83,1.24-1.17,1.73c-0.01,0.03-0.03,0.08-0.03,0.11c-0.01,0.1,0.02,0.18,0.08,0.25
							c0.12,0.13,0.25,0.27,0.39,0.41c2.1,2.16,6.56,4.85,11.02,5.84c0.32,0.07,0.52,0.39,0.45,0.71
							C198.98,124.54,198.74,124.73,198.46,124.73z"/>
					</g>
					<g id="XMLID_524_">
						<path id="XMLID_3940_" class="st4" d="M186.5,117.6c-0.08,0-0.17-0.02-0.25-0.06c-0.99-0.46-1.99-1.19-2.31-1.52
							c-1.01-1.04-1.64-2.71-1.62-4.26c0.01-0.9,0.25-1.63,0.68-2.07c0.04-0.05,0.08-0.09,0.11-0.1c0.38-0.33,1.25-0.34,1.66,0.08
							c0.39,0.42,2.37,2.87,3.58,4.86c0.17,0.28,0.08,0.65-0.2,0.82c-0.28,0.17-0.65,0.08-0.82-0.2c-1.11-1.82-2.95-4.13-3.38-4.61
							c-0.03,0-0.07,0-0.11,0c-0.16,0.18-0.32,0.59-0.33,1.25c-0.01,0.95,0.31,2.41,1.28,3.41c0.22,0.23,1.13,0.88,1.96,1.27
							c0.3,0.14,0.43,0.49,0.29,0.79C186.93,117.48,186.72,117.6,186.5,117.6z"/>
					</g>
					<g id="XMLID_523_">
						<path id="XMLID_3937_" class="st4" d="M214.25,112.39c-1.29,0-2.45-0.47-3.29-1.33c-0.4-0.41-0.75-1.03-1.02-1.79
							c-0.96-2.67-1.15-7.85,2.23-11.15c0.53-0.52,0.85-0.83,1.31-0.64c0.42,0.18,0.42,0.61,0.42,0.93c0,0.61,0,1.74,1.23,3.01
							c0.49,0.49,2.24,2.04,4.25,0.98l0.76-0.4l0.1,0.86c0.29,2.42-0.08,4.77-1.01,6.47l-0.05,0.08c-0.3,0.52-0.65,0.99-1.05,1.38
							c-0.97,0.94-2.28,1.53-3.62,1.59C214.43,112.38,214.34,112.39,214.25,112.39z M212.76,99.23c-2.71,2.9-2.5,7.41-1.7,9.65
							c0.21,0.59,0.47,1.07,0.75,1.35c0.66,0.67,1.6,1.02,2.65,0.97c1.05-0.05,2.09-0.51,2.85-1.25c0.34-0.33,0.64-0.73,0.89-1.18
							l0.05-0.08c0.69-1.29,1.01-3.04,0.9-4.89c-1.89,0.57-3.71-0.36-4.86-1.52C213.19,101.12,212.86,100.02,212.76,99.23z"/>
					</g>
					<g id="XMLID_522_">
						<path id="XMLID_3936_" class="st4" d="M220.27,165.07c-0.03,0-0.05,0-0.08-0.01c-0.33-0.05-0.55-0.35-0.51-0.67
							c0.1-0.71,0.23-1.43,0.38-2.14c0.29-1.4,0.65-2.84,1.01-4.23c0.2-0.78,0.4-1.57,0.59-2.35c0.75-3.08,1.36-6.38,0.79-9.6
							c-0.06-0.32,0.16-0.63,0.48-0.69c0.32-0.06,0.63,0.16,0.69,0.48c0.6,3.43-0.03,6.87-0.81,10.08
							c-0.19,0.79-0.39,1.58-0.59,2.37c-0.35,1.38-0.72,2.8-1,4.18c-0.15,0.69-0.27,1.38-0.37,2.06
							C220.81,164.86,220.56,165.07,220.27,165.07z"/>
					</g>
					<g id="XMLID_521_">
						<path id="XMLID_3935_" class="st4" d="M217.93,172.59c-2.53,0-4.41-0.66-5.53-2.19c-0.98-1.34-1.83-3.17-2.55-5.44
							c-1.8-5.69-2.63-12.93-3.02-16.4c-0.09-0.82-0.18-1.6-0.22-1.77c-0.11-0.29,0.04-0.62,0.33-0.75c0.3-0.13,0.65,0.01,0.78,0.32
							c0.08,0.19,0.12,0.48,0.3,2.07c0.39,3.44,1.21,10.59,2.98,16.18c0.67,2.12,1.49,3.88,2.38,5.1c2.56,3.52,11.27,1.02,20.3-2.21
							c0.35-0.13,0.44-0.21,0.45-0.22c0.17-0.17,0.5-0.5,0.5-0.66v-0.87c0-0.19-0.24-0.48-0.61-0.71c-0.01-0.01-0.02-0.01-0.03-0.02
							c-0.07-0.03-0.26-0.06-0.35-0.08c-0.08-0.01-0.15-0.03-0.21-0.04c-0.74-0.16-1.49-0.33-2.25-0.5
							c-1.49-0.34-3.03-0.69-4.55-0.96c-1.53-0.28-3.1-0.25-4.62-0.23c-0.46,0.01-0.92,0.02-1.37,0.02h-0.34
							c-0.33,0-0.59-0.27-0.59-0.59s0.27-0.59,0.59-0.59h0.34c0.45,0,0.9-0.01,1.35-0.02c1.58-0.03,3.22-0.05,4.86,0.25
							c1.54,0.28,3.1,0.63,4.6,0.97c0.75,0.17,1.5,0.34,2.25,0.5c0.05,0.01,0.11,0.02,0.16,0.03c0.33,0.06,0.61,0.12,0.82,0.28
							c0.43,0.28,1.13,0.87,1.13,1.7v0.87c0,0.65-0.5,1.14-0.83,1.47c-0.21,0.21-0.49,0.37-0.91,0.52
							C227.4,170.99,221.87,172.59,217.93,172.59z"/>
					</g>
					<g id="XMLID_520_">
						<path id="XMLID_3934_" class="st4" d="M210.72,165.6c-0.03,0-0.07,0-0.11-0.01c-1.83-0.33-3.75-1.37-5.12-2.77
							c-3.29-3.38-9.43-14-7.41-25.26c0.05-0.3,0.33-0.51,0.64-0.49c0.31,0.03,0.54,0.28,0.54,0.59v0.44c0,0.14-0.05,0.26-0.12,0.36
							c-1.57,10.54,4.12,20.35,7.21,23.51c1.21,1.24,2.88,2.14,4.48,2.43c0.32,0.06,0.54,0.37,0.48,0.69
							C211.25,165.4,211,165.6,210.72,165.6z"/>
					</g>
					<g id="XMLID_519_">
						<path id="XMLID_3933_" class="st4" d="M227.04,163.23h-0.3c-0.28,0-0.52-0.19-0.58-0.47c-0.06-0.27,0.08-0.55,0.33-0.67
							c2.05-0.96,4.09-1.77,6.17-2.59c0.17-0.06,0.38-0.19,0.47-0.46c0.04-0.13,0.05-0.25,0.02-0.39l-0.26-1.22
							c-0.03-0.16-0.11-0.3-0.22-0.4c-0.11-0.11-0.23-0.17-0.34-0.19c-3.4-0.77-6.71-0.93-9.86-0.48c-0.33,0.04-0.63-0.18-0.67-0.5
							c-0.05-0.32,0.18-0.63,0.5-0.67c3.28-0.47,6.74-0.3,10.27,0.5c0.32,0.07,0.63,0.23,0.89,0.48c0.29,0.26,0.49,0.63,0.58,1.03
							l0.26,1.22c0.07,0.36,0.05,0.69-0.06,1.01c-0.18,0.55-0.59,0.97-1.17,1.19c-1.86,0.73-3.7,1.46-5.52,2.29
							C227.46,163.1,227.27,163.23,227.04,163.23z"/>
					</g>
					<g id="XMLID_518_">
						<path id="XMLID_3932_" class="st4" d="M239.4,161.81c-1.39,0-3.61-0.95-5.96-2.03c-0.3-0.14-0.43-0.49-0.29-0.79
							c0.14-0.3,0.49-0.43,0.79-0.29c1.52,0.69,4.69,2.14,5.7,1.9c0.17-0.04,0.24-0.1,0.25-0.11c0.01-0.03-0.03-0.19-0.23-0.39
							c-2.12-2.1-4.75-4.35-6.2-3.06c-0.25,0.22-0.62,0.2-0.84-0.05c-0.22-0.25-0.2-0.62,0.05-0.84c2.47-2.19,6.09,1.39,7.82,3.11
							c0.48,0.48,0.68,1.05,0.53,1.55c-0.08,0.27-0.32,0.75-1.11,0.95C239.76,161.8,239.59,161.81,239.4,161.81z"/>
					</g>
					<g id="XMLID_517_">
						<path id="XMLID_3931_" class="st4" d="M240.57,171.42c-1.78,0-5.18-2.14-6.63-3.25c-0.26-0.2-0.31-0.57-0.11-0.83
							c0.2-0.26,0.57-0.31,0.83-0.11c2.31,1.78,5.34,3.2,5.99,3.01c0-0.09-0.04-0.32-0.27-0.77c-0.29-0.54-1.96-2.96-3.57-4.62
							c-0.46-0.46-1.57-0.26-2.44,0.18c-0.29,0.15-0.65,0.03-0.8-0.26c-0.15-0.29-0.03-0.65,0.26-0.8c1.16-0.59,2.86-0.93,3.83,0.05
							c1.67,1.72,3.42,4.24,3.77,4.89c0.41,0.76,0.51,1.36,0.32,1.82c-0.12,0.29-0.35,0.51-0.64,0.6
							C240.96,171.39,240.78,171.42,240.57,171.42z"/>
					</g>
				</g>
			</g>
		</g>
		<g id="XMLID_1872_">
			<g id="XMLID_1713_">
				<path id="XMLID_3928_" class="st4" d="M176.58,161.66c-0.97,0-1.88-0.24-2.69-0.73c-1.6-0.97-2.55-2.76-2.68-5.06
					c-0.12-2.21,0.54-4.64,1.86-6.84c2.78-4.61,7.67-6.78,10.9-4.84c1.6,0.97,2.55,2.76,2.68,5.06c0.12,2.21-0.54,4.64-1.86,6.84
					c-1.32,2.2-3.16,3.92-5.17,4.84C178.57,161.42,177.55,161.66,176.58,161.66z M181.27,144.67c-2.44,0-5.31,1.89-7.18,4.99
					c-1.2,2-1.81,4.18-1.7,6.16c0.1,1.89,0.85,3.35,2.11,4.1c1.25,0.76,2.89,0.74,4.61-0.05c1.8-0.83,3.45-2.38,4.65-4.38
					c1.2-2,1.81-4.18,1.7-6.16c-0.1-1.89-0.85-3.35-2.11-4.1C182.73,144.85,182.02,144.67,181.27,144.67z"/>
			</g>
			<g id="XMLID_2015_">
				<path id="XMLID_3927_" class="st4" d="M179.11,163.08c-0.97,0-1.88-0.24-2.69-0.73c-0.28-0.17-0.37-0.53-0.2-0.82
					c0.17-0.28,0.53-0.37,0.82-0.2c1.25,0.76,2.89,0.74,4.61-0.05c1.8-0.83,3.45-2.38,4.65-4.38c2.44-4.05,2.26-8.65-0.41-10.26
					c-0.28-0.17-0.37-0.53-0.2-0.82c0.17-0.28,0.53-0.37,0.82-0.2c3.23,1.95,3.6,7.28,0.82,11.89c-1.32,2.2-3.16,3.92-5.17,4.84
					C181.11,162.84,180.08,163.08,179.11,163.08z"/>
			</g>
			<g id="XMLID_1871_">
				<path id="XMLID_640_" class="st4" d="M176.09,158.62c-0.49,0-0.94-0.12-1.35-0.36c-1.93-1.16-1.84-4.72,0.19-8.1
					c2.04-3.38,5.14-5.12,7.07-3.96c1.93,1.16,1.84,4.72-0.19,8.1C180.2,156.98,177.93,158.62,176.09,158.62z M180.67,147.04
					c-1.29,0-3.25,1.3-4.71,3.73c-1.78,2.95-1.74,5.78-0.6,6.47c1.14,0.69,3.66-0.6,5.44-3.55c1.78-2.95,1.74-5.78,0.6-6.47
					C181.19,147.1,180.95,147.04,180.67,147.04z"/>
			</g>
			<g id="XMLID_2018_">
				<path id="XMLID_6571_" class="st4" d="M176.73,162.44c-0.1,0-0.2-0.02-0.29-0.08l-2.28-1.28c-0.29-0.16-0.39-0.52-0.23-0.81
					c0.16-0.29,0.52-0.39,0.81-0.23l2.28,1.28c0.29,0.16,0.39,0.52,0.23,0.81C177.14,162.33,176.94,162.44,176.73,162.44z"/>
			</g>
			<g id="XMLID_2026_">
				<path id="XMLID_6570_" class="st4" d="M186.2,146.73c-0.1,0-0.2-0.02-0.29-0.08l-2.53-1.42c-0.29-0.16-0.39-0.52-0.23-0.81
					c0.16-0.29,0.52-0.39,0.81-0.23l2.53,1.42c0.29,0.16,0.39,0.52,0.23,0.81C186.61,146.62,186.41,146.73,186.2,146.73z"/>
			</g>
		</g>
		<g id="XMLID_2086_">
			<g id="XMLID_2119_">
				<path id="XMLID_3923_" class="st4" d="M89.85,96.45c-0.34-0.01-0.6-0.28-0.59-0.61c0.12-4.97-3.84-9.11-8.81-9.23
					c-1.55-0.03-3.08,0.33-4.43,1.04c-0.29,0.15-0.65,0.04-0.8-0.25c-0.15-0.29-0.04-0.65,0.25-0.8c1.53-0.81,3.27-1.22,5.02-1.18
					c5.63,0.13,10.1,4.82,9.97,10.44C90.44,96.19,90.17,96.45,89.85,96.45z"/>
			</g>
			<g id="XMLID_2103_">
				<path id="XMLID_3922_" class="st4" d="M85.13,97.3c-0.34-0.01-0.6-0.28-0.59-0.61c0.03-1.19-0.41-2.32-1.23-3.18
					c-0.82-0.86-1.93-1.35-3.12-1.38c-0.76-0.02-1.52,0.16-2.19,0.52c-0.29,0.15-0.65,0.04-0.8-0.25c-0.15-0.29-0.04-0.65,0.25-0.8
					c0.85-0.45,1.8-0.68,2.77-0.65c1.51,0.03,2.91,0.65,3.95,1.74c1.04,1.09,1.59,2.52,1.56,4.03C85.71,97.05,85.45,97.3,85.13,97.3
					z"/>
			</g>
			<g id="XMLID_2088_">
				<path id="XMLID_3919_" class="st4" d="M86.9,99.11c-0.63,0-1.21-0.19-1.64-0.56c-0.49-0.41-0.75-0.99-0.73-1.65
					c0.03-1.39,1.3-2.73,2.89-3.05c0.88-0.18,1.72,0,2.3,0.49c0.49,0.41,0.75,0.99,0.73,1.65c-0.03,1.39-1.3,2.73-2.89,3.05
					C87.33,99.09,87.12,99.11,86.9,99.11z M88.07,94.98c-0.14,0-0.28,0.01-0.43,0.04c-1.03,0.2-1.91,1.08-1.93,1.91
					c-0.01,0.29,0.1,0.53,0.31,0.71c0.3,0.25,0.77,0.34,1.3,0.23c1.03-0.2,1.91-1.08,1.93-1.91c0.01-0.29-0.1-0.53-0.31-0.71
					C88.73,95.08,88.43,94.98,88.07,94.98z"/>
			</g>
			<g id="XMLID_2087_">
				<path id="XMLID_3916_" class="st4" d="M76.94,92.99c-0.05,0-0.1,0-0.16-0.01c-0.76-0.06-1.5-0.55-2.03-1.34
					c-0.94-1.4-0.98-3.34-0.11-4.42c0.42-0.52,1.01-0.79,1.65-0.75c0.81,0.05,1.58,0.58,2.13,1.45c0.92,1.46,0.89,3.41-0.06,4.44
					C77.98,92.76,77.48,92.99,76.94,92.99z M76.18,87.65c-0.23,0-0.44,0.11-0.61,0.32c-0.55,0.68-0.47,2.05,0.17,3.01
					c0.32,0.48,0.75,0.79,1.13,0.82c0.24,0.02,0.44-0.07,0.62-0.25c0.52-0.56,0.61-1.9-0.08-2.99c-0.33-0.53-0.78-0.87-1.19-0.89
					C76.21,87.65,76.19,87.65,76.18,87.65z"/>
			</g>
		</g>
		<g id="XMLID_2034_">
			<g id="XMLID_1710_">
				<path id="XMLID_636_" class="st4" d="M257.8,139.51c-0.97,0-2.13-0.25-3.46-0.75c-2.61-0.99-5.62-2.85-8.46-5.23
					c-5.29-4.44-9.7-10.59-7.47-13.26c0.99-1.18,3.09-1.25,5.89-0.19c2.61,0.99,5.62,2.85,8.46,5.23c5.29,4.44,9.7,10.59,7.47,13.26
					C259.72,139.2,258.88,139.51,257.8,139.51z M240.85,120.51c-0.7,0-1.23,0.17-1.52,0.52c-1.27,1.51,1.43,6.64,7.32,11.59
					c2.74,2.3,5.63,4.09,8.12,5.03c2.23,0.85,3.94,0.91,4.56,0.16c1.27-1.51-1.43-6.64-7.32-11.59c-2.74-2.3-5.63-4.09-8.12-5.03
					C242.7,120.74,241.65,120.51,240.85,120.51z"/>
			</g>
			<g id="XMLID_2025_">
				<path id="XMLID_625_" class="st4" d="M256.18,141.2c-0.97,0-2.13-0.25-3.46-0.75c-2.61-0.99-5.62-2.85-8.46-5.23
					c-2.84-2.38-5.2-5.02-6.63-7.42c-1.54-2.58-1.83-4.65-0.84-5.84c0.21-0.25,0.59-0.28,0.84-0.07c0.25,0.21,0.28,0.59,0.07,0.84
					c-0.62,0.74-0.27,2.41,0.95,4.47c1.36,2.29,3.62,4.82,6.37,7.12c2.74,2.3,5.63,4.09,8.12,5.03c2.23,0.85,3.94,0.91,4.56,0.16
					c0.21-0.25,0.59-0.28,0.84-0.07c0.25,0.21,0.28,0.59,0.07,0.84C258.09,140.89,257.26,141.2,256.18,141.2z"/>
			</g>
			<g id="XMLID_2019_">
				<path id="XMLID_6569_" class="st4" d="M237.25,122.93c-0.15,0-0.3-0.06-0.41-0.17c-0.24-0.23-0.24-0.6-0.02-0.84l1.82-1.89
					c0.23-0.24,0.61-0.24,0.84-0.02c0.24,0.23,0.24,0.6,0.02,0.84l-1.82,1.89C237.56,122.87,237.4,122.93,237.25,122.93z"/>
			</g>
			<g id="XMLID_2036_">
				<path id="XMLID_6568_" class="st4" d="M258.16,140.47c-0.15,0-0.3-0.05-0.41-0.17c-0.24-0.23-0.24-0.6-0.02-0.84l1.62-1.69
					c0.23-0.24,0.6-0.24,0.84-0.02c0.24,0.23,0.24,0.6,0.02,0.84l-1.62,1.69C258.47,140.41,258.32,140.47,258.16,140.47z"/>
			</g>
		</g>
		<g id="XMLID_2124_">
			<g id="XMLID_2122_">
				<path id="XMLID_601_" class="st4" d="M246.86,109.42c-0.16,0-0.32-0.02-0.48-0.08c-0.54-0.17-0.93-0.6-1.04-1.16l-2.07-9.82
					c-0.1-0.45,0.01-0.92,0.3-1.28c0.29-0.36,0.72-0.58,1.18-0.59l13.04-0.26c0.66-0.02,1.23,0.37,1.47,0.97
					c0.24,0.6,0.09,1.28-0.39,1.72l-10.96,10.09C247.61,109.27,247.24,109.42,246.86,109.42z M246.5,107.94
					c0.04,0.19,0.18,0.25,0.24,0.27c0.06,0.02,0.21,0.05,0.35-0.08l10.96-10.09c0.17-0.15,0.12-0.33,0.09-0.4
					c-0.03-0.07-0.12-0.22-0.34-0.23l-13.04,0.26c-0.15,0-0.24,0.09-0.27,0.14c-0.04,0.05-0.1,0.15-0.07,0.3L246.5,107.94
					L246.5,107.94z"/>
			</g>
			<g id="XMLID_2120_">
				<path id="XMLID_6567_" class="st4" d="M248.43,110.56c-0.3,0-0.6-0.08-0.86-0.26c-0.01-0.01-0.02-0.02-0.04-0.02l-1.52-1.1
					c-0.27-0.19-0.33-0.56-0.13-0.83c0.19-0.27,0.56-0.32,0.83-0.13l1.49,1.08c0.12,0.09,0.32,0.12,0.47-0.02l10.96-10.09
					c0.09-0.08,0.13-0.18,0.12-0.29c-0.01-0.12-0.07-0.22-0.16-0.28c-0.28-0.18-0.35-0.55-0.17-0.82c0.18-0.28,0.55-0.35,0.82-0.17
					c0.4,0.26,0.66,0.7,0.7,1.18c0.04,0.47-0.14,0.93-0.5,1.26l-10.96,10.09C249.19,110.42,248.81,110.56,248.43,110.56z"/>
			</g>
			<g id="XMLID_2123_">
				<path id="XMLID_6566_" class="st4" d="M259.96,98.75c-0.12,0-0.24-0.04-0.35-0.11l-1.44-1.04c-0.27-0.19-0.32-0.56-0.13-0.83
					c0.19-0.27,0.56-0.32,0.83-0.13l1.44,1.04c0.27,0.19,0.32,0.56,0.13,0.83C260.32,98.66,260.14,98.75,259.96,98.75z"/>
			</g>
		</g>
		<g id="XMLID_794_">
			<path id="XMLID_6518_" class="st4" d="M158.2,209.39c-0.54,0-1.08-0.01-1.62-0.03c-0.33-0.01-0.58-0.29-0.57-0.62
				c0.01-0.33,0.29-0.58,0.62-0.57c0.52,0.02,1.05,0.03,1.57,0.03l0.37,0c0.33,0,0.6,0.26,0.6,0.59c0,0.33-0.26,0.6-0.59,0.6
				L158.2,209.39z M160.54,209.32c-0.31,0-0.57-0.24-0.59-0.56c-0.02-0.33,0.23-0.61,0.56-0.63c0.65-0.04,1.3-0.09,1.93-0.16
				c0.33-0.03,0.62,0.2,0.66,0.53c0.04,0.33-0.2,0.62-0.53,0.66c-0.66,0.07-1.33,0.13-1.99,0.17
				C160.57,209.32,160.55,209.32,160.54,209.32z M154.64,209.23c-0.02,0-0.04,0-0.05,0c-0.66-0.06-1.33-0.14-1.99-0.23
				c-0.33-0.05-0.55-0.35-0.51-0.67c0.05-0.33,0.35-0.55,0.67-0.51c0.64,0.09,1.28,0.16,1.93,0.22c0.33,0.03,0.57,0.32,0.54,0.65
				C155.2,208.99,154.94,209.23,154.64,209.23z M164.46,208.89c-0.29,0-0.54-0.21-0.59-0.5c-0.05-0.32,0.17-0.63,0.49-0.68
				c0.64-0.1,1.28-0.23,1.9-0.36c0.32-0.07,0.64,0.13,0.71,0.45c0.07,0.32-0.13,0.64-0.45,0.71c-0.64,0.14-1.3,0.27-1.97,0.37
				C164.52,208.89,164.49,208.89,164.46,208.89z M150.74,208.68c-0.04,0-0.08,0-0.11-0.01c-0.66-0.13-1.31-0.27-1.96-0.43
				c-0.32-0.08-0.51-0.4-0.43-0.72c0.08-0.32,0.4-0.51,0.72-0.43c0.62,0.16,1.26,0.3,1.89,0.42c0.32,0.06,0.53,0.37,0.47,0.7
				C151.26,208.48,151.02,208.68,150.74,208.68z M168.3,208.05c-0.26,0-0.5-0.17-0.57-0.43c-0.09-0.32,0.1-0.64,0.41-0.73l0.19-0.05
				c0.56-0.16,1.12-0.33,1.68-0.51c0.31-0.1,0.65,0.07,0.75,0.39c0.1,0.31-0.07,0.65-0.39,0.75c-0.57,0.18-1.14,0.35-1.71,0.52
				l-0.19,0.06C168.41,208.04,168.36,208.05,168.3,208.05z M146.91,207.72c-0.06,0-0.12-0.01-0.18-0.03
				c-0.64-0.2-1.28-0.42-1.9-0.65c-0.31-0.12-0.46-0.46-0.35-0.77c0.12-0.31,0.46-0.46,0.77-0.35c0.6,0.23,1.21,0.44,1.83,0.63
				c0.31,0.1,0.49,0.43,0.39,0.74C147.4,207.55,147.17,207.72,146.91,207.72z M172.06,206.86c-0.25,0-0.48-0.15-0.56-0.4
				c-0.11-0.31,0.05-0.65,0.37-0.76c0.61-0.21,1.22-0.44,1.83-0.67c0.31-0.12,0.65,0.04,0.77,0.34c0.12,0.31-0.04,0.65-0.34,0.77
				c-0.62,0.24-1.25,0.47-1.87,0.68C172.19,206.85,172.12,206.86,172.06,206.86z M143.23,206.32c-0.08,0-0.16-0.02-0.24-0.05
				c-0.61-0.28-1.22-0.57-1.8-0.89c-0.29-0.15-0.4-0.51-0.25-0.8c0.15-0.29,0.51-0.4,0.8-0.25c0.56,0.3,1.14,0.59,1.73,0.85
				c0.3,0.14,0.43,0.49,0.3,0.79C143.67,206.19,143.46,206.32,143.23,206.32z M175.74,205.45c-0.23,0-0.45-0.14-0.55-0.37
				c-0.13-0.3,0.02-0.65,0.32-0.78c0.6-0.25,1.2-0.51,1.79-0.77c0.3-0.14,0.65,0,0.79,0.3c0.13,0.3,0,0.65-0.3,0.79
				c-0.6,0.27-1.21,0.53-1.82,0.79C175.89,205.44,175.81,205.45,175.74,205.45z M139.76,204.47c-0.11,0-0.22-0.03-0.31-0.09
				c-0.57-0.36-1.13-0.73-1.67-1.13c-0.27-0.19-0.32-0.57-0.13-0.83c0.19-0.27,0.57-0.32,0.83-0.13c0.51,0.37,1.05,0.74,1.6,1.08
				c0.28,0.17,0.36,0.54,0.19,0.82C140.15,204.37,139.95,204.47,139.76,204.47z M179.33,203.84c-0.22,0-0.43-0.12-0.54-0.34
				c-0.14-0.3-0.02-0.65,0.28-0.79c0.58-0.28,1.17-0.58,1.74-0.87c0.29-0.15,0.65-0.04,0.8,0.25c0.15,0.29,0.04,0.65-0.25,0.8
				c-0.59,0.3-1.18,0.6-1.77,0.89C179.5,203.82,179.41,203.84,179.33,203.84z M136.57,202.15c-0.14,0-0.27-0.05-0.38-0.14
				c-0.51-0.43-1.01-0.89-1.49-1.36c-0.23-0.23-0.24-0.61-0.01-0.84c0.23-0.23,0.61-0.24,0.84-0.01c0.45,0.45,0.93,0.88,1.42,1.3
				c0.25,0.21,0.28,0.59,0.07,0.84C136.91,202.08,136.74,202.15,136.57,202.15z M182.82,202.03c-0.21,0-0.41-0.11-0.52-0.31
				c-0.16-0.29-0.06-0.65,0.23-0.81c0.57-0.32,1.14-0.64,1.69-0.97c0.28-0.17,0.65-0.07,0.81,0.21c0.17,0.28,0.07,0.65-0.21,0.81
				c-0.56,0.33-1.14,0.67-1.72,0.99C183.02,202,182.92,202.03,182.82,202.03z M186.21,200.02c-0.2,0-0.39-0.1-0.5-0.28
				c-0.18-0.28-0.09-0.64,0.18-0.82c0.55-0.35,1.1-0.71,1.63-1.07c0.27-0.18,0.64-0.11,0.83,0.16c0.18,0.27,0.11,0.64-0.16,0.83
				c-0.54,0.37-1.1,0.73-1.66,1.09C186.43,199.99,186.32,200.02,186.21,200.02z M133.78,199.39c-0.17,0-0.33-0.07-0.45-0.2
				c-0.44-0.5-0.86-1.03-1.26-1.57c-0.2-0.26-0.14-0.64,0.12-0.83c0.26-0.2,0.64-0.14,0.83,0.12c0.38,0.51,0.79,1.02,1.2,1.5
				c0.22,0.25,0.19,0.62-0.06,0.84C134.05,199.34,133.91,199.39,133.78,199.39z M189.47,197.82c-0.19,0-0.37-0.09-0.48-0.25
				c-0.19-0.27-0.13-0.64,0.14-0.83c0.53-0.38,1.06-0.77,1.57-1.16c0.26-0.2,0.63-0.15,0.83,0.11c0.2,0.26,0.15,0.63-0.11,0.83
				c-0.52,0.4-1.06,0.8-1.6,1.19C189.71,197.78,189.59,197.82,189.47,197.82z M131.43,196.23c-0.2,0-0.39-0.1-0.5-0.28
				c-0.35-0.56-0.69-1.15-1.01-1.74c-0.15-0.29-0.04-0.65,0.25-0.8c0.29-0.15,0.65-0.04,0.8,0.25c0.3,0.57,0.62,1.13,0.96,1.66
				c0.18,0.28,0.09,0.64-0.19,0.82C131.65,196.2,131.54,196.23,131.43,196.23z M192.6,195.42c-0.17,0-0.34-0.07-0.46-0.22
				c-0.21-0.25-0.17-0.63,0.08-0.84c0.5-0.41,1-0.83,1.49-1.26c0.25-0.22,0.62-0.19,0.84,0.06c0.22,0.25,0.19,0.62-0.06,0.84
				c-0.5,0.43-1.01,0.87-1.52,1.28C192.86,195.38,192.73,195.42,192.6,195.42z M195.57,192.83c-0.16,0-0.32-0.06-0.44-0.19
				c-0.22-0.24-0.21-0.62,0.03-0.84c0.47-0.44,0.95-0.9,1.4-1.35c0.23-0.23,0.61-0.23,0.84,0c0.23,0.23,0.23,0.61,0,0.84
				c-0.47,0.47-0.95,0.93-1.43,1.38C195.86,192.78,195.71,192.83,195.57,192.83z M129.59,192.76c-0.23,0-0.45-0.13-0.54-0.35
				c-0.27-0.6-0.52-1.23-0.75-1.86c-0.11-0.31,0.05-0.65,0.36-0.76c0.31-0.11,0.65,0.05,0.76,0.36c0.22,0.61,0.46,1.21,0.72,1.79
				c0.13,0.3,0,0.65-0.3,0.78C129.75,192.75,129.67,192.76,129.59,192.76z M198.36,190.04c-0.15,0-0.29-0.05-0.41-0.16
				c-0.24-0.22-0.25-0.6-0.03-0.84c0.44-0.48,0.88-0.96,1.3-1.45c0.22-0.25,0.59-0.27,0.84-0.06c0.25,0.21,0.27,0.59,0.06,0.84
				c-0.43,0.5-0.88,1-1.33,1.48C198.67,189.98,198.52,190.04,198.36,190.04z M128.24,189.07c-0.26,0-0.49-0.17-0.57-0.43
				c-0.18-0.63-0.35-1.28-0.5-1.94c-0.07-0.32,0.13-0.64,0.45-0.71c0.32-0.07,0.64,0.13,0.71,0.45c0.14,0.63,0.31,1.26,0.49,1.87
				c0.09,0.32-0.09,0.65-0.4,0.74C128.35,189.06,128.3,189.07,128.24,189.07z M200.94,187.07c-0.13,0-0.26-0.04-0.37-0.13
				c-0.26-0.21-0.3-0.58-0.09-0.84c0.41-0.51,0.81-1.03,1.19-1.54c0.2-0.26,0.57-0.32,0.83-0.12c0.26,0.2,0.32,0.57,0.12,0.83
				c-0.39,0.53-0.8,1.06-1.22,1.58C201.29,186.99,201.11,187.07,200.94,187.07z M127.36,185.23c-0.28,0-0.54-0.21-0.59-0.5
				c-0.11-0.65-0.2-1.31-0.28-1.98c-0.04-0.33,0.2-0.62,0.52-0.66c0.33-0.04,0.62,0.2,0.66,0.52c0.08,0.65,0.17,1.29,0.27,1.92
				c0.05,0.32-0.16,0.63-0.49,0.69C127.43,185.23,127.4,185.23,127.36,185.23z M203.28,183.9c-0.12,0-0.23-0.03-0.33-0.1
				c-0.27-0.18-0.34-0.55-0.16-0.83c0.36-0.54,0.72-1.08,1.06-1.63c0.17-0.28,0.54-0.37,0.82-0.19c0.28,0.17,0.36,0.54,0.19,0.82
				c-0.35,0.56-0.71,1.12-1.09,1.67C203.66,183.81,203.47,183.9,203.28,183.9z M126.91,181.33c-0.31,0-0.57-0.24-0.59-0.55
				c-0.04-0.65-0.07-1.32-0.09-1.99c-0.01-0.33,0.25-0.6,0.58-0.61c0.34-0.01,0.6,0.25,0.61,0.58c0.01,0.65,0.04,1.3,0.09,1.94
				c0.02,0.33-0.23,0.61-0.55,0.63C126.93,181.33,126.92,181.33,126.91,181.33z M205.36,180.55c-0.1,0-0.2-0.02-0.29-0.08
				c-0.29-0.16-0.39-0.52-0.23-0.81c0.32-0.56,0.62-1.14,0.91-1.71c0.15-0.29,0.51-0.41,0.8-0.26c0.29,0.15,0.41,0.51,0.26,0.8
				c-0.3,0.59-0.61,1.18-0.94,1.76C205.77,180.44,205.57,180.55,205.36,180.55z M126.82,177.39c-0.34-0.01-0.6-0.28-0.59-0.61
				c0.01-0.65,0.04-1.32,0.07-1.99c0.02-0.33,0.3-0.57,0.63-0.56c0.33,0.02,0.58,0.3,0.56,0.63c-0.04,0.65-0.06,1.31-0.07,1.95
				C127.4,177.13,127.14,177.39,126.82,177.39z M207.13,177.04c-0.08,0-0.16-0.02-0.24-0.05c-0.3-0.13-0.43-0.49-0.3-0.79
				c0.13-0.29,0.25-0.58,0.38-0.87c0.13-0.3,0.48-0.44,0.78-0.32c0.3,0.13,0.44,0.48,0.32,0.78c-0.13,0.3-0.25,0.6-0.39,0.89
				C207.58,176.91,207.36,177.04,207.13,177.04z M127.04,173.46c-0.02,0-0.04,0-0.06,0c-0.33-0.03-0.57-0.32-0.54-0.65
				c0.06-0.65,0.13-1.32,0.21-1.98c0.04-0.33,0.34-0.56,0.66-0.52c0.33,0.04,0.56,0.34,0.52,0.66c-0.08,0.65-0.15,1.3-0.21,1.94
				C127.6,173.23,127.34,173.46,127.04,173.46z M127.52,169.55c-0.03,0-0.06,0-0.09-0.01c-0.32-0.05-0.55-0.35-0.5-0.68
				c0.1-0.65,0.21-1.3,0.33-1.96c0.06-0.32,0.37-0.54,0.69-0.48c0.32,0.06,0.54,0.37,0.48,0.69c-0.12,0.64-0.23,1.29-0.33,1.93
				C128.06,169.34,127.81,169.55,127.52,169.55z M128.24,165.68c-0.04,0-0.08,0-0.12-0.01c-0.32-0.07-0.53-0.38-0.46-0.7
				c0.13-0.64,0.28-1.28,0.43-1.94c0.08-0.32,0.4-0.52,0.72-0.44c0.32,0.08,0.52,0.4,0.44,0.72c-0.15,0.64-0.29,1.28-0.43,1.91
				C128.76,165.49,128.51,165.68,128.24,165.68z M129.14,161.85c-0.05,0-0.1-0.01-0.15-0.02c-0.32-0.08-0.51-0.41-0.42-0.73
				c0.16-0.63,0.34-1.27,0.52-1.91c0.09-0.32,0.42-0.5,0.73-0.41c0.32,0.09,0.5,0.42,0.41,0.73c-0.18,0.64-0.35,1.27-0.51,1.89
				C129.65,161.67,129.41,161.85,129.14,161.85z M130.22,158.06c-0.06,0-0.12-0.01-0.17-0.03c-0.31-0.1-0.49-0.43-0.4-0.74
				c0.19-0.62,0.39-1.25,0.6-1.89c0.1-0.31,0.44-0.48,0.75-0.38c0.31,0.1,0.48,0.44,0.38,0.75c-0.2,0.63-0.4,1.25-0.59,1.87
				C130.71,157.89,130.47,158.06,130.22,158.06z M131.43,154.31c-0.06,0-0.13-0.01-0.19-0.03c-0.31-0.11-0.48-0.45-0.37-0.76
				c0.21-0.62,0.43-1.24,0.66-1.87c0.11-0.31,0.45-0.47,0.76-0.36c0.31,0.11,0.47,0.45,0.36,0.76c-0.23,0.62-0.44,1.24-0.65,1.85
				C131.91,154.16,131.68,154.31,131.43,154.31z M132.78,150.61c-0.07,0-0.14-0.01-0.21-0.04c-0.31-0.12-0.46-0.46-0.34-0.77
				c0.23-0.61,0.47-1.22,0.72-1.84c0.12-0.31,0.47-0.45,0.77-0.33c0.31,0.12,0.45,0.47,0.33,0.77c-0.25,0.61-0.48,1.22-0.71,1.83
				C133.25,150.47,133.02,150.61,132.78,150.61z"/>
		</g>
		<g id="XMLID_716_">
			<path id="XMLID_6470_" class="st4" d="M61.82,167.26c-0.32,0-0.59-0.26-0.59-0.58c-0.01-0.33,0.25-0.6,0.58-0.61
				c0.65-0.01,1.3-0.05,1.93-0.1c0.33-0.02,0.61,0.22,0.64,0.55c0.03,0.33-0.22,0.61-0.55,0.64c-0.66,0.05-1.33,0.08-2,0.1
				C61.83,167.26,61.82,167.26,61.82,167.26z M59.85,167.22c-0.01,0-0.03,0-0.04,0c-0.67-0.05-1.35-0.14-2.02-0.27
				c-0.32-0.06-0.53-0.37-0.47-0.7c0.06-0.32,0.37-0.54,0.7-0.47c0.62,0.12,1.25,0.2,1.88,0.25c0.33,0.02,0.57,0.31,0.55,0.64
				C60.42,166.99,60.16,167.22,59.85,167.22z M65.74,166.95c-0.29,0-0.55-0.22-0.59-0.51c-0.04-0.33,0.18-0.62,0.51-0.67
				c0.64-0.09,1.28-0.19,1.91-0.32c0.32-0.06,0.63,0.15,0.7,0.47c0.06,0.32-0.15,0.63-0.47,0.7c-0.65,0.13-1.32,0.24-1.98,0.33
				C65.79,166.95,65.77,166.95,65.74,166.95z M56,166.49c-0.06,0-0.12-0.01-0.18-0.03c-0.64-0.2-1.28-0.43-1.9-0.7
				c-0.3-0.13-0.44-0.48-0.31-0.78c0.13-0.3,0.48-0.44,0.78-0.31c0.59,0.25,1.19,0.47,1.79,0.66c0.31,0.1,0.49,0.43,0.39,0.74
				C56.48,166.33,56.25,166.49,56,166.49z M69.6,166.2c-0.27,0-0.51-0.18-0.58-0.45c-0.08-0.32,0.11-0.64,0.43-0.72
				c0.62-0.16,1.25-0.34,1.86-0.53c0.31-0.1,0.65,0.07,0.75,0.39c0.1,0.31-0.07,0.65-0.39,0.75c-0.63,0.2-1.28,0.39-1.92,0.55
				C69.7,166.19,69.65,166.2,69.6,166.2z M73.35,165.01c-0.24,0-0.47-0.15-0.56-0.38c-0.12-0.31,0.04-0.65,0.34-0.77
				c0.6-0.23,1.2-0.48,1.79-0.74c0.3-0.13,0.65,0,0.79,0.3c0.13,0.3,0,0.65-0.3,0.79c-0.61,0.27-1.23,0.53-1.85,0.77
				C73.49,165,73.42,165.01,73.35,165.01z M52.38,164.95c-0.1,0-0.19-0.02-0.29-0.07c-0.58-0.32-1.16-0.67-1.73-1.05
				c-0.27-0.18-0.35-0.55-0.16-0.82c0.18-0.27,0.55-0.35,0.82-0.16c0.54,0.36,1.09,0.69,1.64,0.99c0.29,0.16,0.39,0.52,0.24,0.81
				C52.8,164.83,52.59,164.95,52.38,164.95z M76.94,163.4c-0.22,0-0.42-0.12-0.53-0.32c-0.15-0.29-0.04-0.65,0.26-0.8
				c0.57-0.29,1.14-0.61,1.69-0.94c0.28-0.17,0.65-0.07,0.81,0.21c0.17,0.28,0.07,0.65-0.21,0.81c-0.57,0.34-1.16,0.66-1.75,0.97
				C77.13,163.38,77.03,163.4,76.94,163.4z M49.11,162.77c-0.13,0-0.26-0.04-0.37-0.13c-0.52-0.41-1.03-0.85-1.53-1.3
				c-0.24-0.22-0.26-0.6-0.04-0.84c0.22-0.24,0.6-0.26,0.84-0.04c0.48,0.44,0.97,0.86,1.47,1.25c0.26,0.2,0.3,0.58,0.1,0.83
				C49.46,162.69,49.28,162.77,49.11,162.77z M80.34,161.4c-0.19,0-0.38-0.09-0.5-0.27c-0.18-0.27-0.11-0.64,0.17-0.82
				c0.53-0.35,1.07-0.73,1.59-1.11c0.26-0.2,0.64-0.14,0.83,0.12c0.2,0.26,0.14,0.64-0.12,0.83c-0.53,0.4-1.09,0.78-1.64,1.15
				C80.56,161.37,80.45,161.4,80.34,161.4z M46.19,160.12c-0.16,0-0.31-0.06-0.43-0.18c-0.46-0.47-0.91-0.97-1.35-1.48
				c-0.21-0.25-0.19-0.62,0.06-0.84c0.25-0.21,0.62-0.18,0.84,0.06c0.42,0.49,0.86,0.98,1.3,1.43c0.23,0.24,0.22,0.61-0.01,0.84
				C46.49,160.07,46.34,160.12,46.19,160.12z M83.5,159.05c-0.17,0-0.34-0.07-0.46-0.22c-0.21-0.25-0.17-0.63,0.08-0.84
				c0.49-0.41,0.99-0.84,1.46-1.27c0.24-0.22,0.62-0.21,0.84,0.04c0.22,0.24,0.21,0.62-0.04,0.84c-0.49,0.45-1,0.89-1.51,1.31
				C83.76,159.01,83.63,159.05,83.5,159.05z M43.63,157.13c-0.18,0-0.36-0.08-0.47-0.23c-0.4-0.52-0.79-1.06-1.18-1.62
				c-0.19-0.27-0.12-0.64,0.15-0.83c0.27-0.19,0.64-0.12,0.83,0.15c0.37,0.54,0.76,1.07,1.14,1.57c0.2,0.26,0.15,0.63-0.11,0.83
				C43.88,157.09,43.75,157.13,43.63,157.13z M86.4,156.39c-0.15,0-0.3-0.06-0.42-0.17c-0.23-0.23-0.24-0.61,0-0.84
				c0.45-0.46,0.9-0.93,1.33-1.41c0.22-0.24,0.6-0.26,0.84-0.05c0.24,0.22,0.26,0.6,0.05,0.84c-0.44,0.49-0.91,0.98-1.37,1.46
				C86.71,156.33,86.56,156.39,86.4,156.39z M41.39,153.89c-0.2,0-0.39-0.1-0.51-0.28c-0.35-0.56-0.69-1.14-1.01-1.72
				c-0.16-0.29-0.06-0.65,0.23-0.81c0.29-0.16,0.65-0.06,0.81,0.23c0.32,0.56,0.65,1.13,0.99,1.67c0.17,0.28,0.09,0.65-0.19,0.82
				C41.61,153.86,41.5,153.89,41.39,153.89z M89.04,153.46c-0.13,0-0.27-0.04-0.38-0.13c-0.25-0.21-0.29-0.58-0.08-0.84
				c0.41-0.5,0.81-1.01,1.19-1.53c0.2-0.26,0.57-0.32,0.83-0.12c0.26,0.2,0.32,0.57,0.12,0.83c-0.4,0.53-0.81,1.07-1.23,1.58
				C89.38,153.39,89.21,153.46,89.04,153.46z M39.47,150.46c-0.22,0-0.43-0.12-0.53-0.33c-0.3-0.59-0.59-1.2-0.86-1.8
				c-0.13-0.3,0-0.65,0.3-0.79c0.3-0.14,0.65,0,0.79,0.3c0.27,0.59,0.55,1.18,0.84,1.76c0.15,0.29,0.03,0.65-0.26,0.8
				C39.65,150.44,39.56,150.46,39.47,150.46z M91.39,150.3c-0.11,0-0.23-0.03-0.33-0.1c-0.27-0.18-0.34-0.55-0.16-0.83
				c0.36-0.53,0.71-1.08,1.05-1.63c0.17-0.28,0.54-0.37,0.82-0.2c0.28,0.17,0.37,0.54,0.2,0.82c-0.35,0.57-0.71,1.13-1.08,1.68
				C91.76,150.2,91.58,150.3,91.39,150.3z M93.44,146.94c-0.1,0-0.2-0.02-0.29-0.07c-0.29-0.16-0.39-0.52-0.23-0.81
				c0.31-0.56,0.62-1.14,0.91-1.72c0.15-0.29,0.5-0.41,0.8-0.27c0.29,0.15,0.41,0.5,0.27,0.8c-0.3,0.59-0.61,1.19-0.93,1.76
				C93.85,146.83,93.65,146.94,93.44,146.94z M37.85,146.86c-0.24,0-0.46-0.14-0.55-0.37c-0.25-0.62-0.48-1.24-0.7-1.87
				c-0.11-0.31,0.05-0.65,0.36-0.76c0.31-0.11,0.65,0.05,0.76,0.36c0.21,0.61,0.44,1.22,0.68,1.82c0.12,0.3-0.03,0.65-0.33,0.77
				C38,146.85,37.92,146.86,37.85,146.86z M36.55,143.14c-0.26,0-0.49-0.17-0.57-0.42c-0.19-0.64-0.37-1.28-0.54-1.92
				c-0.08-0.32,0.11-0.64,0.43-0.72c0.32-0.08,0.64,0.11,0.72,0.43c0.16,0.62,0.33,1.25,0.52,1.87c0.1,0.31-0.08,0.65-0.4,0.74
				C36.66,143.13,36.6,143.14,36.55,143.14z M35.57,139.32c-0.28,0-0.52-0.19-0.58-0.48c-0.13-0.66-0.25-1.32-0.35-1.97
				c-0.05-0.32,0.17-0.63,0.5-0.68c0.32-0.05,0.63,0.17,0.68,0.5c0.1,0.63,0.21,1.27,0.34,1.91c0.07,0.32-0.14,0.64-0.46,0.7
				C35.65,139.32,35.61,139.32,35.57,139.32z M34.98,135.43c-0.3,0-0.56-0.23-0.59-0.54c-0.07-0.67-0.11-1.35-0.14-2
				c-0.01-0.33,0.24-0.6,0.57-0.62c0.33-0.01,0.6,0.24,0.62,0.57c0.02,0.63,0.07,1.28,0.13,1.93c0.03,0.33-0.21,0.62-0.53,0.65
				C35.02,135.43,35,135.43,34.98,135.43z M34.83,131.49c-0.34-0.01-0.6-0.28-0.59-0.61c0.01-0.67,0.04-1.35,0.09-2
				c0.02-0.33,0.3-0.58,0.64-0.55c0.33,0.02,0.57,0.31,0.55,0.64c-0.04,0.63-0.07,1.28-0.09,1.94
				C35.41,131.24,35.15,131.49,34.83,131.49z M35.11,127.57c-0.02,0-0.05,0-0.08,0c-0.33-0.04-0.56-0.34-0.52-0.66
				c0.08-0.67,0.19-1.34,0.31-1.98c0.06-0.32,0.37-0.53,0.69-0.47c0.32,0.06,0.54,0.37,0.47,0.69c-0.12,0.62-0.22,1.26-0.3,1.91
				C35.66,127.35,35.4,127.57,35.11,127.57z M35.84,123.7c-0.05,0-0.1-0.01-0.15-0.02c-0.32-0.08-0.51-0.4-0.43-0.72
				c0.17-0.65,0.36-1.3,0.56-1.93c0.1-0.31,0.44-0.48,0.75-0.38c0.31,0.1,0.48,0.44,0.38,0.75c-0.2,0.6-0.38,1.22-0.54,1.85
				C36.34,123.52,36.1,123.7,35.84,123.7z M37.07,119.97c-0.08,0-0.15-0.01-0.23-0.05c-0.3-0.13-0.45-0.47-0.32-0.78
				c0.26-0.62,0.54-1.24,0.84-1.83c0.15-0.29,0.51-0.41,0.8-0.26c0.29,0.15,0.41,0.51,0.26,0.8c-0.29,0.56-0.56,1.15-0.8,1.75
				C37.53,119.83,37.3,119.97,37.07,119.97z M38.86,116.46c-0.11,0-0.21-0.03-0.31-0.09c-0.28-0.17-0.37-0.54-0.19-0.82
				c0.35-0.57,0.73-1.14,1.13-1.67c0.2-0.26,0.57-0.32,0.83-0.12c0.26,0.2,0.32,0.57,0.12,0.83c-0.38,0.51-0.74,1.04-1.08,1.59
				C39.25,116.36,39.06,116.46,38.86,116.46z M41.2,113.31c-0.14,0-0.28-0.05-0.39-0.15c-0.25-0.22-0.27-0.59-0.05-0.84
				c0.44-0.5,0.92-0.99,1.4-1.45c0.24-0.23,0.61-0.22,0.84,0.02c0.23,0.24,0.22,0.61-0.02,0.84c-0.46,0.44-0.91,0.9-1.33,1.38
				C41.53,113.24,41.36,113.31,41.2,113.31z M44.05,110.6c-0.17,0-0.35-0.08-0.47-0.22c-0.2-0.26-0.16-0.63,0.09-0.84
				c0.52-0.42,1.07-0.82,1.63-1.19c0.27-0.18,0.64-0.11,0.82,0.16c0.18,0.27,0.11,0.64-0.16,0.82c-0.53,0.36-1.05,0.74-1.55,1.13
				C44.31,110.56,44.18,110.6,44.05,110.6z M47.32,108.42c-0.21,0-0.41-0.11-0.52-0.31c-0.16-0.29-0.06-0.65,0.23-0.81
				c0.58-0.32,1.18-0.63,1.79-0.91c0.3-0.14,0.65-0.01,0.79,0.29c0.14,0.3,0.01,0.65-0.29,0.79c-0.59,0.27-1.16,0.57-1.71,0.87
				C47.52,108.39,47.42,108.42,47.32,108.42z M85.89,107.25c-0.04,0-0.09,0-0.13-0.01l-0.05-0.01c-0.32-0.07-0.52-0.39-0.45-0.71
				c0.07-0.32,0.39-0.52,0.71-0.45l0.04,0.01c0.32,0.07,0.52,0.39,0.45,0.71C86.41,107.06,86.16,107.25,85.89,107.25z M83.92,106.82
				c-0.04,0-0.08,0-0.12-0.01c-0.63-0.13-1.27-0.27-1.92-0.4c-0.32-0.06-0.53-0.38-0.47-0.7c0.06-0.32,0.38-0.53,0.7-0.47
				c0.65,0.13,1.3,0.26,1.94,0.4c0.32,0.07,0.53,0.38,0.46,0.71C84.44,106.63,84.2,106.82,83.92,106.82z M50.89,106.76
				c-0.24,0-0.47-0.15-0.56-0.38c-0.12-0.31,0.04-0.65,0.34-0.77c0.61-0.23,1.25-0.45,1.9-0.65c0.31-0.1,0.65,0.08,0.74,0.39
				c0.1,0.31-0.08,0.65-0.39,0.74c-0.62,0.19-1.23,0.4-1.82,0.63C51.03,106.75,50.96,106.76,50.89,106.76z M80.06,106.05
				c-0.04,0-0.07,0-0.11-0.01c-0.64-0.12-1.28-0.23-1.93-0.34c-0.32-0.05-0.54-0.36-0.49-0.68c0.05-0.32,0.36-0.54,0.68-0.49
				c0.65,0.11,1.31,0.22,1.95,0.34c0.32,0.06,0.54,0.37,0.48,0.69C80.59,105.85,80.34,106.05,80.06,106.05z M54.64,105.6
				c-0.27,0-0.51-0.18-0.58-0.45c-0.08-0.32,0.12-0.64,0.44-0.72c0.64-0.16,1.3-0.3,1.96-0.42c0.32-0.06,0.63,0.15,0.69,0.48
				c0.06,0.32-0.15,0.63-0.48,0.69c-0.64,0.12-1.28,0.26-1.89,0.41C54.74,105.6,54.69,105.6,54.64,105.6z M76.17,105.4
				c-0.03,0-0.06,0-0.09-0.01c-0.64-0.1-1.29-0.19-1.94-0.27c-0.33-0.04-0.56-0.34-0.51-0.67c0.04-0.33,0.34-0.55,0.67-0.51
				c0.66,0.08,1.31,0.18,1.96,0.27c0.32,0.05,0.55,0.35,0.5,0.68C76.71,105.19,76.46,105.4,76.17,105.4z M72.26,104.9
				c-0.02,0-0.04,0-0.06,0c-0.65-0.07-1.3-0.13-1.95-0.18c-0.33-0.03-0.57-0.31-0.54-0.64c0.03-0.33,0.31-0.57,0.64-0.54
				c0.66,0.05,1.32,0.12,1.98,0.19c0.33,0.03,0.56,0.33,0.53,0.65C72.82,104.67,72.56,104.9,72.26,104.9z M58.51,104.88
				c-0.29,0-0.55-0.22-0.59-0.52c-0.04-0.33,0.18-0.62,0.51-0.67c0.65-0.09,1.31-0.16,1.98-0.22c0.33-0.03,0.62,0.21,0.64,0.54
				c0.03,0.33-0.21,0.62-0.54,0.64c-0.65,0.06-1.3,0.13-1.93,0.21C58.56,104.88,58.54,104.88,58.51,104.88z M68.34,104.58
				c-0.01,0-0.02,0-0.03,0c-0.66-0.04-1.32-0.06-1.95-0.08c-0.33-0.01-0.59-0.28-0.58-0.61c0.01-0.33,0.27-0.6,0.61-0.58
				c0.65,0.02,1.31,0.04,1.99,0.08c0.33,0.02,0.58,0.3,0.56,0.63C68.91,104.33,68.65,104.58,68.34,104.58z M62.43,104.53
				c-0.32,0-0.58-0.25-0.59-0.57c-0.02-0.33,0.24-0.61,0.57-0.62c0.65-0.03,1.32-0.05,1.99-0.05c0.33,0,0.6,0.26,0.6,0.59
				c0,0.33-0.26,0.6-0.59,0.6c-0.66,0-1.31,0.02-1.95,0.05C62.45,104.53,62.44,104.53,62.43,104.53z"/>
		</g>
		<g id="XMLID_805_">
			<path id="XMLID_6432_" class="st4" d="M250.11,117.76c-0.2,0-0.4-0.1-0.51-0.29c-0.17-0.28-0.07-0.65,0.21-0.81
				c0.55-0.33,1.11-0.67,1.65-1.02c0.27-0.18,0.64-0.1,0.82,0.17c0.18,0.27,0.1,0.64-0.17,0.82c-0.56,0.36-1.13,0.72-1.7,1.05
				C250.32,117.73,250.21,117.76,250.11,117.76z M253.41,115.6c-0.18,0-0.37-0.09-0.48-0.25c-0.19-0.27-0.13-0.64,0.13-0.83
				c0.52-0.38,1.04-0.77,1.55-1.17c0.26-0.2,0.63-0.16,0.84,0.1c0.2,0.26,0.16,0.63-0.1,0.84c-0.52,0.41-1.06,0.82-1.59,1.2
				C253.65,115.57,253.53,115.6,253.41,115.6z M256.49,113.16c-0.17,0-0.33-0.07-0.45-0.2c-0.22-0.25-0.19-0.62,0.06-0.84
				c0.48-0.42,0.97-0.86,1.43-1.31c0.24-0.23,0.61-0.22,0.84,0.02c0.23,0.24,0.22,0.61-0.02,0.84c-0.48,0.46-0.98,0.91-1.48,1.35
				C256.77,113.11,256.63,113.16,256.49,113.16z M259.34,110.44c-0.15,0-0.29-0.05-0.41-0.16c-0.24-0.23-0.25-0.6-0.02-0.84
				c0.45-0.47,0.88-0.95,1.3-1.44c0.22-0.25,0.59-0.28,0.84-0.06c0.25,0.21,0.28,0.59,0.06,0.84c-0.43,0.5-0.88,1-1.34,1.48
				C259.65,110.38,259.49,110.44,259.34,110.44z M261.91,107.46c-0.13,0-0.26-0.04-0.37-0.13c-0.26-0.2-0.3-0.58-0.1-0.83
				c0.4-0.51,0.79-1.03,1.16-1.56c0.19-0.27,0.56-0.33,0.83-0.14c0.27,0.19,0.33,0.56,0.14,0.83c-0.38,0.54-0.78,1.08-1.19,1.6
				C262.26,107.38,262.09,107.46,261.91,107.46z M264.18,104.25c-0.11,0-0.22-0.03-0.32-0.09c-0.28-0.18-0.36-0.54-0.18-0.82
				c0.34-0.55,0.68-1.11,0.99-1.66c0.16-0.29,0.52-0.39,0.81-0.23c0.29,0.16,0.39,0.52,0.23,0.81c-0.32,0.58-0.67,1.16-1.02,1.72
				C264.57,104.15,264.38,104.25,264.18,104.25z M266.1,100.81c-0.09,0-0.18-0.02-0.26-0.06c-0.29-0.14-0.42-0.5-0.27-0.8
				c0.28-0.58,0.55-1.17,0.8-1.76c0.13-0.3,0.48-0.44,0.78-0.32c0.3,0.13,0.44,0.48,0.32,0.78c-0.26,0.61-0.54,1.22-0.83,1.82
				C266.53,100.69,266.32,100.81,266.1,100.81z M267.63,97.19c-0.07,0-0.13-0.01-0.2-0.03c-0.31-0.11-0.47-0.45-0.36-0.76
				c0.21-0.61,0.41-1.23,0.59-1.84c0.09-0.32,0.42-0.5,0.74-0.41c0.32,0.09,0.5,0.42,0.41,0.74c-0.18,0.64-0.39,1.28-0.61,1.91
				C268.11,97.03,267.88,97.19,267.63,97.19z M268.71,93.4c-0.04,0-0.08,0-0.13-0.01c-0.32-0.07-0.52-0.39-0.45-0.71
				c0.14-0.63,0.26-1.27,0.35-1.9c0.05-0.32,0.35-0.55,0.68-0.5c0.32,0.05,0.55,0.35,0.5,0.68c-0.1,0.65-0.22,1.32-0.37,1.97
				C269.23,93.21,268.99,93.4,268.71,93.4z M269.3,89.51c-0.02,0-0.03,0-0.05,0c-0.33-0.03-0.57-0.31-0.54-0.64
				c0.05-0.64,0.08-1.29,0.09-1.93c0-0.33,0.29-0.59,0.6-0.59c0.33,0,0.59,0.27,0.59,0.6c-0.01,0.67-0.04,1.34-0.1,2.01
				C269.87,89.28,269.61,89.51,269.3,89.51z M269.35,85.57c-0.31,0-0.57-0.24-0.59-0.56c-0.04-0.63-0.1-1.28-0.19-1.92
				c-0.04-0.33,0.19-0.62,0.51-0.67c0.33-0.04,0.62,0.19,0.67,0.51c0.09,0.67,0.15,1.34,0.19,2c0.02,0.33-0.23,0.61-0.56,0.63
				C269.37,85.57,269.36,85.57,269.35,85.57z M268.83,81.67c-0.28,0-0.52-0.19-0.58-0.48c-0.13-0.62-0.28-1.25-0.45-1.87
				c-0.09-0.32,0.1-0.64,0.41-0.73c0.32-0.09,0.64,0.1,0.73,0.41c0.18,0.65,0.34,1.3,0.47,1.95c0.07,0.32-0.14,0.64-0.46,0.7
				C268.91,81.67,268.87,81.67,268.83,81.67z M267.78,77.88c-0.25,0-0.48-0.15-0.56-0.4c-0.21-0.6-0.44-1.21-0.69-1.8
				c-0.13-0.3,0.02-0.65,0.32-0.78c0.3-0.13,0.65,0.02,0.78,0.32c0.26,0.62,0.5,1.25,0.72,1.87c0.11,0.31-0.06,0.65-0.37,0.76
				C267.91,77.87,267.85,77.88,267.78,77.88z M266.27,74.24c-0.22,0-0.43-0.12-0.53-0.33c-0.28-0.57-0.58-1.15-0.9-1.71
				c-0.16-0.29-0.06-0.65,0.23-0.81c0.29-0.16,0.65-0.06,0.81,0.23c0.33,0.58,0.64,1.18,0.93,1.77c0.14,0.29,0.02,0.65-0.27,0.8
				C266.45,74.23,266.36,74.24,266.27,74.24z M264.34,70.81c-0.2,0-0.39-0.1-0.5-0.28c-0.34-0.54-0.71-1.08-1.08-1.61
				c-0.19-0.27-0.13-0.64,0.14-0.83c0.27-0.19,0.64-0.13,0.83,0.14c0.39,0.54,0.76,1.1,1.12,1.66c0.18,0.28,0.09,0.64-0.18,0.82
				C264.56,70.78,264.45,70.81,264.34,70.81z M262.06,67.61c-0.18,0-0.35-0.08-0.47-0.23c-0.4-0.5-0.82-1-1.24-1.49
				c-0.22-0.25-0.19-0.62,0.06-0.84c0.25-0.22,0.62-0.19,0.84,0.06c0.44,0.5,0.87,1.02,1.28,1.54c0.2,0.26,0.16,0.63-0.1,0.84
				C262.32,67.56,262.19,67.61,262.06,67.61z M259.46,64.64c-0.16,0-0.31-0.06-0.43-0.18c-0.45-0.46-0.91-0.92-1.38-1.37
				c-0.24-0.23-0.25-0.6-0.02-0.84c0.23-0.24,0.6-0.25,0.84-0.02c0.48,0.46,0.96,0.93,1.42,1.41c0.23,0.24,0.22,0.61-0.02,0.84
				C259.76,64.59,259.61,64.64,259.46,64.64z M189.11,62.46c-0.19,0-0.37-0.09-0.49-0.25c-0.19-0.27-0.13-0.64,0.14-0.83
				c0.54-0.38,1.08-0.76,1.63-1.13c0.27-0.18,0.64-0.11,0.83,0.16c0.18,0.27,0.11,0.64-0.16,0.83c-0.54,0.36-1.08,0.73-1.61,1.11
				C189.35,62.43,189.23,62.46,189.11,62.46z M256.6,61.94c-0.14,0-0.28-0.05-0.39-0.14c-0.49-0.42-0.99-0.84-1.5-1.24
				c-0.26-0.2-0.3-0.58-0.1-0.84c0.2-0.26,0.58-0.3,0.84-0.1c0.52,0.41,1.04,0.84,1.54,1.27c0.25,0.21,0.28,0.59,0.06,0.84
				C256.93,61.87,256.77,61.94,256.6,61.94z M192.38,60.26c-0.2,0-0.39-0.1-0.5-0.28c-0.18-0.28-0.09-0.64,0.18-0.82
				c0.56-0.35,1.12-0.7,1.69-1.04c0.28-0.17,0.65-0.08,0.82,0.2c0.17,0.28,0.08,0.65-0.2,0.82c-0.56,0.34-1.11,0.68-1.66,1.03
				C192.6,60.23,192.49,60.26,192.38,60.26z M253.51,59.5c-0.12,0-0.24-0.04-0.35-0.11c-0.52-0.38-1.06-0.75-1.6-1.1
				c-0.27-0.18-0.35-0.55-0.17-0.82c0.18-0.27,0.55-0.35,0.82-0.17c0.55,0.36,1.11,0.74,1.64,1.13c0.27,0.19,0.33,0.56,0.14,0.83
				C253.88,59.41,253.69,59.5,253.51,59.5z M195.76,58.24c-0.21,0-0.41-0.11-0.52-0.3c-0.16-0.29-0.06-0.65,0.23-0.81
				c0.57-0.32,1.16-0.64,1.74-0.95c0.29-0.15,0.65-0.04,0.8,0.25c0.15,0.29,0.04,0.65-0.25,0.8c-0.57,0.3-1.15,0.62-1.71,0.94
				C195.95,58.21,195.85,58.24,195.76,58.24z M250.22,57.34c-0.1,0-0.21-0.03-0.3-0.08c-0.55-0.33-1.12-0.65-1.69-0.96
				c-0.29-0.16-0.4-0.52-0.24-0.81c0.16-0.29,0.52-0.4,0.81-0.24c0.58,0.32,1.17,0.65,1.73,0.99c0.28,0.17,0.37,0.53,0.2,0.82
				C250.62,57.24,250.42,57.34,250.22,57.34z M199.24,56.4c-0.22,0-0.43-0.12-0.53-0.33c-0.14-0.29-0.02-0.65,0.27-0.8
				c0.6-0.29,1.2-0.58,1.8-0.85c0.3-0.14,0.65,0,0.79,0.3c0.14,0.3,0,0.65-0.3,0.79c-0.58,0.26-1.18,0.54-1.76,0.83
				C199.41,56.38,199.33,56.4,199.24,56.4z M246.76,55.46c-0.09,0-0.18-0.02-0.26-0.06c-0.58-0.28-1.17-0.56-1.76-0.82
				c-0.3-0.13-0.44-0.48-0.3-0.78c0.13-0.3,0.48-0.44,0.78-0.3c0.6,0.27,1.21,0.55,1.81,0.84c0.29,0.14,0.42,0.5,0.27,0.8
				C247.19,55.34,246.98,55.46,246.76,55.46z M202.82,54.77c-0.23,0-0.45-0.14-0.55-0.37c-0.13-0.3,0.02-0.65,0.32-0.78
				c0.61-0.25,1.23-0.5,1.85-0.73c0.31-0.12,0.65,0.04,0.77,0.35c0.12,0.31-0.04,0.65-0.35,0.77c-0.6,0.23-1.21,0.47-1.81,0.72
				C202.98,54.76,202.9,54.77,202.82,54.77z M243.15,53.87c-0.07,0-0.15-0.01-0.22-0.04c-0.6-0.24-1.21-0.46-1.82-0.68
				c-0.31-0.11-0.47-0.45-0.37-0.76c0.11-0.31,0.45-0.47,0.76-0.37c0.63,0.22,1.26,0.45,1.87,0.69c0.31,0.12,0.46,0.47,0.34,0.77
				C243.62,53.73,243.39,53.87,243.15,53.87z M206.51,53.38c-0.25,0-0.48-0.16-0.56-0.4c-0.11-0.31,0.06-0.65,0.37-0.75
				c0.63-0.21,1.26-0.42,1.89-0.61c0.31-0.1,0.65,0.08,0.74,0.4c0.1,0.31-0.08,0.65-0.4,0.74c-0.62,0.19-1.24,0.39-1.85,0.6
				C206.63,53.37,206.57,53.38,206.51,53.38z M239.43,52.58c-0.06,0-0.12-0.01-0.17-0.03c-0.62-0.19-1.25-0.37-1.87-0.53
				c-0.32-0.08-0.51-0.41-0.43-0.73c0.08-0.32,0.41-0.51,0.73-0.43c0.64,0.17,1.28,0.35,1.92,0.54c0.31,0.1,0.49,0.43,0.4,0.74
				C239.93,52.41,239.69,52.58,239.43,52.58z M210.27,52.25c-0.26,0-0.5-0.18-0.57-0.44c-0.08-0.32,0.11-0.64,0.42-0.73
				c0.64-0.17,1.29-0.33,1.93-0.48c0.32-0.07,0.64,0.13,0.71,0.45c0.07,0.32-0.13,0.64-0.45,0.71c-0.63,0.14-1.27,0.3-1.89,0.47
				C210.37,52.24,210.32,52.25,210.27,52.25z M235.63,51.58c-0.04,0-0.09,0-0.13-0.01c-0.63-0.14-1.27-0.27-1.91-0.38
				c-0.32-0.06-0.54-0.37-0.48-0.69c0.06-0.32,0.37-0.54,0.69-0.48c0.65,0.12,1.31,0.25,1.95,0.39c0.32,0.07,0.52,0.39,0.45,0.71
				C236.14,51.39,235.9,51.58,235.63,51.58z M214.11,51.37c-0.28,0-0.53-0.2-0.58-0.48c-0.06-0.32,0.15-0.63,0.47-0.7
				c0.65-0.12,1.31-0.24,1.96-0.34c0.32-0.05,0.63,0.17,0.68,0.5c0.05,0.32-0.17,0.63-0.5,0.68c-0.64,0.1-1.29,0.21-1.92,0.33
				C214.19,51.37,214.15,51.37,214.11,51.37z M231.75,50.89c-0.03,0-0.05,0-0.08-0.01c-0.64-0.09-1.29-0.17-1.93-0.23
				c-0.33-0.03-0.56-0.32-0.53-0.65c0.03-0.33,0.33-0.56,0.65-0.53c0.66,0.07,1.32,0.15,1.98,0.24c0.33,0.05,0.55,0.35,0.51,0.67
				C232.3,50.67,232.04,50.89,231.75,50.89z M218,50.78c-0.3,0-0.55-0.22-0.59-0.53c-0.04-0.33,0.2-0.62,0.52-0.66
				c0.66-0.08,1.32-0.14,1.98-0.2c0.33-0.03,0.61,0.22,0.64,0.54c0.03,0.33-0.22,0.61-0.54,0.64c-0.64,0.05-1.3,0.12-1.94,0.19
				C218.05,50.77,218.03,50.78,218,50.78z M227.83,50.5c-0.01,0-0.02,0-0.04,0c-0.65-0.04-1.3-0.07-1.95-0.08
				c-0.33-0.01-0.59-0.28-0.58-0.61c0.01-0.32,0.27-0.58,0.59-0.58c0.67,0.02,1.34,0.05,2,0.09c0.33,0.02,0.58,0.3,0.56,0.63
				C228.41,50.25,228.14,50.5,227.83,50.5z M221.93,50.46c-0.32,0-0.58-0.25-0.59-0.57c-0.02-0.33,0.24-0.61,0.57-0.62
				c0.66-0.03,1.33-0.05,1.99-0.06c0.32-0.01,0.6,0.26,0.6,0.59c0,0.33-0.26,0.6-0.59,0.6c-0.65,0.01-1.3,0.03-1.95,0.06
				C221.95,50.46,221.94,50.46,221.93,50.46z"/>
		</g>
		<g id="XMLID_5293_">
			<g id="XMLID_5301_">
				<g id="XMLID_5304_">
					<path id="XMLID_3789_" class="st4" d="M216.74,82.36c-0.6,0-1.2-0.15-1.71-0.45c-0.96-0.56-1.49-1.57-1.46-2.77l0-0.65
						c0-0.33,0.27-0.59,0.59-0.59c0.33,0,0.59,0.27,0.59,0.59v0.66c-0.02,0.99,0.46,1.49,0.88,1.73c0.65,0.38,1.57,0.38,2.22,0
						c0.41-0.24,0.9-0.74,0.88-1.72l0-0.68c0-0.33,0.27-0.59,0.59-0.59c0.33,0,0.59,0.27,0.59,0.59v0.66
						c0.03,1.18-0.51,2.19-1.46,2.75C217.94,82.21,217.34,82.36,216.74,82.36z"/>
				</g>
				<g id="XMLID_5302_">
					<path id="XMLID_3786_" class="st4" d="M224.09,79.09h-14.7c-0.21,0-0.4-0.11-0.51-0.29c-0.11-0.18-0.11-0.4-0.02-0.58
						l2.04-3.86v-3.6c-0.05-2.22,0.9-4.02,2.67-5.06c1.9-1.11,4.44-1.11,6.34,0c1.77,1.04,2.72,2.84,2.67,5.08l0,3.59l2.04,3.85
						c0.1,0.18,0.09,0.41-0.02,0.58C224.49,78.98,224.3,79.09,224.09,79.09z M210.38,77.9h12.72l-1.67-3.17
						c-0.08-0.14-0.09-0.31-0.04-0.47v-3.51c0.04-1.79-0.7-3.22-2.08-4.04c-1.54-0.9-3.6-0.9-5.13,0c-1.38,0.81-2.12,2.24-2.08,4.02
						l0,3.57c0.04,0.14,0.03,0.29-0.04,0.41L210.38,77.9z"/>
				</g>
			</g>
			<g id="XMLID_5294_">
				<g id="XMLID_5298_">
					<g id="XMLID_5300_">
						<path id="XMLID_3785_" class="st4" d="M227.65,77.2c-0.12,0-0.25-0.04-0.36-0.12c-0.26-0.2-0.32-0.57-0.12-0.83
							c1.94-2.59,1.97-5.28,0.08-7.78c-0.2-0.26-0.15-0.63,0.11-0.83c0.26-0.2,0.63-0.15,0.83,0.11c2.21,2.92,2.19,6.19-0.07,9.21
							C228.01,77.11,227.83,77.2,227.65,77.2z"/>
					</g>
					<g id="XMLID_5299_">
						<path id="XMLID_3784_" class="st4" d="M232.01,79.09c-0.16,0-0.31-0.06-0.43-0.18c-0.23-0.24-0.22-0.61,0.02-0.84
							c1.71-1.64,2.63-3.73,2.61-5.88c-0.03-2.08-0.95-4.06-2.59-5.56c-0.24-0.22-0.26-0.6-0.04-0.84c0.22-0.24,0.6-0.26,0.84-0.04
							c1.89,1.73,2.95,4.01,2.97,6.43c0.03,2.48-1.02,4.88-2.97,6.76C232.3,79.04,232.16,79.09,232.01,79.09z"/>
					</g>
				</g>
			</g>
			<g id="XMLID_56_">
				<g id="XMLID_60_">
					<g id="XMLID_279_">
						<path id="XMLID_592_" class="st4" d="M206.09,77.2c-0.18,0-0.36-0.08-0.48-0.24c-2.26-3.02-2.29-6.29-0.07-9.21
							c0.2-0.26,0.57-0.31,0.83-0.11c0.26,0.2,0.31,0.57,0.11,0.83c-1.89,2.5-1.87,5.19,0.08,7.78c0.2,0.26,0.14,0.64-0.12,0.83
							C206.33,77.16,206.21,77.2,206.09,77.2z"/>
					</g>
					<g id="XMLID_123_">
						<path id="XMLID_590_" class="st4" d="M201.73,79.09c-0.15,0-0.3-0.06-0.41-0.17c-1.95-1.87-3-4.27-2.97-6.76
							c0.03-2.41,1.09-4.69,2.97-6.43c0.24-0.22,0.62-0.21,0.84,0.04c0.22,0.24,0.21,0.62-0.04,0.84c-1.64,1.51-2.56,3.48-2.59,5.56
							c-0.03,2.15,0.9,4.24,2.61,5.88c0.24,0.23,0.24,0.6,0.02,0.84C202.04,79.03,201.89,79.09,201.73,79.09z"/>
					</g>
				</g>
			</g>
		</g>
		<g id="XMLID_4599_">
			<g id="XMLID_4623_">
				<path id="XMLID_6431_" class="st4" d="M159.31,123.91c-0.33,0-0.59-0.27-0.59-0.59v-4.7c0-0.33,0.27-0.59,0.59-0.59
					s0.59,0.27,0.59,0.59v4.7C159.9,123.64,159.64,123.91,159.31,123.91z"/>
			</g>
			<g id="XMLID_4622_">
				<path id="XMLID_6430_" class="st4" d="M166.78,123.91c-0.33,0-0.59-0.27-0.59-0.59v-4.7c0-0.33,0.27-0.59,0.59-0.59
					c0.33,0,0.59,0.27,0.59,0.59v4.7C167.37,123.64,167.11,123.91,166.78,123.91z"/>
			</g>
			<g id="XMLID_4621_">
				<path id="XMLID_6429_" class="st4" d="M144.36,134.81c-0.33,0-0.59-0.27-0.59-0.59v-4.7c0-0.33,0.27-0.59,0.59-0.59
					c0.33,0,0.59,0.27,0.59,0.59v4.7C144.96,134.54,144.69,134.81,144.36,134.81z"/>
			</g>
			<g id="XMLID_4620_">
				<path id="XMLID_6428_" class="st4" d="M151.84,145.7c-0.33,0-0.59-0.27-0.59-0.59v-4.7c0-0.33,0.27-0.59,0.59-0.59
					s0.59,0.27,0.59,0.59v4.7C152.43,145.43,152.16,145.7,151.84,145.7z"/>
			</g>
			<g id="XMLID_4619_">
				<path id="XMLID_6427_" class="st4" d="M159.31,145.7c-0.33,0-0.59-0.27-0.59-0.59v-4.7c0-0.33,0.27-0.59,0.59-0.59
					s0.59,0.27,0.59,0.59v4.7C159.9,145.43,159.64,145.7,159.31,145.7z"/>
			</g>
			<g id="XMLID_4616_">
				<path id="XMLID_3779_" class="st4" d="M159.31,135.45c-1.5,0-2.72-1.07-2.72-2.38v-2.39c0-1.31,1.22-2.38,2.72-2.38
					c1.5,0,2.72,1.07,2.72,2.38v2.39C162.02,134.38,160.81,135.45,159.31,135.45z M159.31,129.49c-0.84,0-1.53,0.53-1.53,1.19v2.39
					c0,0.66,0.68,1.19,1.53,1.19c0.84,0,1.53-0.53,1.53-1.19v-2.39C160.83,130.02,160.15,129.49,159.31,129.49z"/>
			</g>
			<g id="XMLID_4615_">
				<path id="XMLID_3776_" class="st4" d="M151.84,124.59c-1.5,0-2.72-1.07-2.72-2.38v-2.39c0-1.31,1.22-2.38,2.72-2.38
					c1.5,0,2.72,1.07,2.72,2.38v2.39C154.55,123.52,153.33,124.59,151.84,124.59z M151.84,118.63c-0.84,0-1.53,0.53-1.53,1.19v2.39
					c0,0.66,0.68,1.19,1.53,1.19c0.84,0,1.53-0.53,1.53-1.19v-2.39C153.36,119.16,152.68,118.63,151.84,118.63z"/>
			</g>
			<g id="XMLID_4614_">
				<path id="XMLID_3773_" class="st4" d="M174.18,124.59c-1.5,0-2.72-1.07-2.72-2.38v-2.39c0-1.31,1.22-2.38,2.72-2.38
					c1.5,0,2.72,1.07,2.72,2.38v2.39C176.89,123.52,175.67,124.59,174.18,124.59z M174.18,118.63c-0.84,0-1.53,0.53-1.53,1.19v2.39
					c0,0.66,0.68,1.19,1.53,1.19c0.84,0,1.53-0.53,1.53-1.19v-2.39C175.7,119.16,175.02,118.63,174.18,118.63z"/>
			</g>
			<g id="XMLID_4613_">
				<path id="XMLID_581_" class="st4" d="M144.36,124.59c-1.5,0-2.72-1.07-2.72-2.38v-2.39c0-1.31,1.22-2.38,2.72-2.38
					c1.5,0,2.72,1.07,2.72,2.38v2.39C147.08,123.52,145.86,124.59,144.36,124.59z M144.36,118.63c-0.84,0-1.53,0.53-1.53,1.19v2.39
					c0,0.66,0.69,1.19,1.53,1.19c0.84,0,1.53-0.53,1.53-1.19v-2.39C145.89,119.16,145.2,118.63,144.36,118.63z"/>
			</g>
			<g id="XMLID_4611_">
				<path id="XMLID_6426_" class="st4" d="M166.97,132.25c-0.33,0-0.59-0.27-0.59-0.59v-2.67c0-0.33,0.27-0.59,0.59-0.59
					s0.59,0.27,0.59,0.59v2.67C167.56,131.98,167.29,132.25,166.97,132.25z"/>
			</g>
			<g id="XMLID_4602_">
				<path id="XMLID_6425_" class="st4" d="M174.25,139.73c-0.33,0-0.59-0.27-0.59-0.59v-2.67c0-0.33,0.27-0.59,0.59-0.59
					s0.59,0.27,0.59,0.59v2.67C174.85,139.47,174.58,139.73,174.25,139.73z"/>
			</g>
			<g id="XMLID_4601_">
				<path id="XMLID_6424_" class="st4" d="M174.25,131.97c-0.33,0-0.59-0.27-0.59-0.59v-2.67c0-0.33,0.27-0.59,0.59-0.59
					s0.59,0.27,0.59,0.59v2.67C174.85,131.71,174.58,131.97,174.25,131.97z"/>
			</g>
			<g id="XMLID_4600_">
				<path id="XMLID_6421_" class="st4" d="M151.84,130.83c-0.33,0-0.59-0.27-0.59-0.59v-1.45c0-0.33,0.27-0.59,0.59-0.59
					s0.59,0.27,0.59,0.59v1.45C152.43,130.56,152.16,130.83,151.84,130.83z"/>
			</g>
		</g>
		<g id="XMLID_4643_">
			<g id="XMLID_4726_">
				<path id="XMLID_3766_" class="st4" d="M180.43,94.49h-38.47c-1.39,0-2.53-1.13-2.53-2.53V66.69c0-1.39,1.13-2.53,2.53-2.53
					h38.47c1.39,0,2.53,1.13,2.53,2.53v25.28C182.95,93.36,181.82,94.49,180.43,94.49z M141.95,65.35c-0.74,0-1.34,0.6-1.34,1.34
					v25.28c0,0.74,0.6,1.34,1.34,1.34h38.47c0.74,0,1.34-0.6,1.34-1.34V66.69c0-0.74-0.6-1.34-1.34-1.34H141.95z"/>
			</g>
			<g id="XMLID_1728_">
				<path id="XMLID_3763_" class="st4" d="M193.07,107.87h-63.75c-0.51,0-0.95-0.34-1.15-0.9c-0.22-0.58-0.18-1.44,0.42-1.95
					l9.97-8.48c0.82-0.7,1.76-1.06,2.73-1.06h39.82c0.97,0,1.91,0.37,2.72,1.07l9.96,8.47c0.57,0.49,0.65,1.35,0.42,1.96
					C194.01,107.53,193.57,107.87,193.07,107.87z M129.34,106.68h63.69c0.04-0.04,0.1-0.17,0.11-0.35c0.01-0.18-0.04-0.33-0.12-0.4
					l-9.97-8.47c-0.6-0.51-1.27-0.78-1.95-0.78h-39.82c-0.68,0-1.36,0.27-1.96,0.78l-9.97,8.48c-0.08,0.07-0.13,0.23-0.12,0.4
					C129.24,106.51,129.3,106.64,129.34,106.68z"/>
			</g>
			<g id="XMLID_4719_">
				<path id="XMLID_3760_" class="st4" d="M145.54,73.44h-2.86c-0.33,0-0.59-0.27-0.59-0.59v-2.85c0-0.33,0.27-0.59,0.59-0.59h2.86
					c0.33,0,0.59,0.27,0.59,0.59v2.85C146.14,73.18,145.87,73.44,145.54,73.44z M143.28,72.25h1.67v-1.66h-1.67V72.25z"/>
			</g>
			<g id="XMLID_4718_">
				<path id="XMLID_3757_" class="st4" d="M150.97,73.44h-2.86c-0.33,0-0.59-0.27-0.59-0.59v-2.85c0-0.33,0.27-0.59,0.59-0.59h2.86
					c0.33,0,0.59,0.27,0.59,0.59v2.85C151.56,73.18,151.3,73.44,150.97,73.44z M148.71,72.25h1.67v-1.66h-1.67V72.25z"/>
			</g>
			<g id="XMLID_4717_">
				<path id="XMLID_3754_" class="st4" d="M145.54,78.65h-2.86c-0.33,0-0.59-0.27-0.59-0.59V75.2c0-0.33,0.27-0.59,0.59-0.59h2.86
					c0.33,0,0.59,0.27,0.59,0.59v2.86C146.14,78.39,145.87,78.65,145.54,78.65z M143.28,77.46h1.67V75.8h-1.67V77.46z"/>
			</g>
			<g id="XMLID_4716_">
				<path id="XMLID_3751_" class="st4" d="M156.39,73.44h-2.86c-0.33,0-0.59-0.27-0.59-0.59v-2.85c0-0.33,0.27-0.59,0.59-0.59h2.86
					c0.33,0,0.59,0.27,0.59,0.59v2.85C156.99,73.18,156.72,73.44,156.39,73.44z M154.13,72.25h1.67v-1.66h-1.67V72.25z"/>
			</g>
			<g id="XMLID_4715_">
				<path id="XMLID_3748_" class="st4" d="M161.82,73.44h-2.86c-0.33,0-0.59-0.27-0.59-0.59v-2.85c0-0.33,0.27-0.59,0.59-0.59h2.86
					c0.33,0,0.59,0.27,0.59,0.59v2.85C162.42,73.18,162.15,73.44,161.82,73.44z M159.56,72.25h1.67v-1.66h-1.67V72.25z"/>
			</g>
			<g id="XMLID_4711_">
				<path id="XMLID_3747_" class="st4" d="M156.65,77.12h-7.69c-0.33,0-0.59-0.27-0.59-0.59c0-0.33,0.27-0.59,0.59-0.59h7.69
					c0.33,0,0.59,0.27,0.59,0.59C157.25,76.86,156.98,77.12,156.65,77.12z"/>
			</g>
			<g id="XMLID_4706_">
				<path id="XMLID_3746_" class="st4" d="M156.65,79.91h-7.69c-0.33,0-0.59-0.27-0.59-0.59c0-0.33,0.27-0.59,0.59-0.59h7.69
					c0.33,0,0.59,0.27,0.59,0.59C157.25,79.64,156.98,79.91,156.65,79.91z"/>
			</g>
			<g id="XMLID_4701_">
				<path id="XMLID_3745_" class="st4" d="M152.55,82.69h-3.58c-0.33,0-0.59-0.27-0.59-0.59c0-0.33,0.27-0.59,0.59-0.59h3.58
					c0.33,0,0.59,0.27,0.59,0.59C153.14,82.42,152.88,82.69,152.55,82.69z"/>
			</g>
			<g id="XMLID_4700_">
				<path id="XMLID_3742_" class="st4" d="M178.28,82.69h-6.71c-1.39,0-2.51-1.13-2.51-2.51v-8.33c0-1.39,1.13-2.51,2.51-2.51h6.71
					c1.39,0,2.51,1.13,2.51,2.51v8.33C180.79,81.56,179.67,82.69,178.28,82.69z M171.57,70.52c-0.73,0-1.32,0.59-1.32,1.32v8.33
					c0,0.73,0.59,1.32,1.32,1.32h6.71c0.73,0,1.32-0.59,1.32-1.32v-8.33c0-0.73-0.59-1.32-1.32-1.32H171.57z"/>
			</g>
			<g id="XMLID_1707_">
				<path id="XMLID_3739_" class="st4" d="M174.07,90.82h-11.15c-1.28,0-2.32-1.04-2.32-2.32v-8.71c0-1.28,1.04-2.32,2.32-2.32
					h11.15c1.28,0,2.32,1.04,2.32,2.32v8.71C176.39,89.78,175.35,90.82,174.07,90.82z M162.92,78.65c-0.62,0-1.13,0.51-1.13,1.13
					v8.71c0,0.62,0.51,1.13,1.13,1.13h11.15c0.62,0,1.13-0.51,1.13-1.13v-8.71c0-0.62-0.51-1.13-1.13-1.13H162.92z"/>
			</g>
			<g id="XMLID_4652_">
				<path id="XMLID_3738_" class="st4" d="M173.82,101.61h-36.71c-0.33,0-0.59-0.27-0.59-0.59c0-0.33,0.27-0.59,0.59-0.59h36.71
					c0.33,0,0.59,0.27,0.59,0.59C174.42,101.35,174.15,101.61,173.82,101.61z"/>
			</g>
			<g id="XMLID_4644_">
				<path id="XMLID_3737_" class="st4" d="M153.92,99.24h-13.64c-0.33,0-0.59-0.27-0.59-0.59c0-0.33,0.27-0.59,0.59-0.59h13.64
					c0.33,0,0.59,0.27,0.59,0.59C154.52,98.97,154.25,99.24,153.92,99.24z"/>
			</g>
			<g id="XMLID_1726_">
				<path id="XMLID_3734_" class="st4" d="M172.18,107.87H150.2c-0.22,0-0.42-0.12-0.52-0.31c-0.1-0.19-0.09-0.43,0.03-0.61
					l2.17-3.24c0.5-0.75,1.05-0.9,1.42-0.9h15.77c0.38,0,0.93,0.16,1.42,0.9l2.18,3.24c0.12,0.18,0.13,0.42,0.03,0.61
					C172.6,107.75,172.4,107.87,172.18,107.87z M151.32,106.68h19.75l-1.56-2.32c-0.18-0.28-0.35-0.38-0.43-0.38H153.3
					c-0.09,0-0.25,0.1-0.44,0.38L151.32,106.68z"/>
			</g>
		</g>
		<g id="XMLID_670_">
			<path id="XMLID_3733_" class="st4" d="M147.67,178.49c-0.11,0-0.23-0.03-0.33-0.1l-10.33-6.8c-0.27-0.18-0.35-0.55-0.17-0.82
				c0.18-0.27,0.55-0.35,0.82-0.17l9.11,6l-2.33-10.66c-0.05-0.24,0.04-0.48,0.24-0.62c0.2-0.14,0.46-0.14,0.66-0.01l9.12,6
				l-2.32-10.67c-0.05-0.24,0.05-0.48,0.24-0.62c0.2-0.14,0.46-0.14,0.66-0.01l10.34,6.8c0.27,0.18,0.35,0.55,0.17,0.82
				c-0.18,0.27-0.55,0.35-0.82,0.17l-9.12-6l2.32,10.67c0.05,0.24-0.05,0.48-0.24,0.62c-0.2,0.14-0.46,0.14-0.66,0.01l-9.12-6
				l2.33,10.66c0.05,0.24-0.04,0.48-0.24,0.62C147.9,178.45,147.78,178.49,147.67,178.49z"/>
		</g>
		<g id="XMLID_892_">
			<path id="XMLID_3732_" class="st4" d="M238.09,93.86c-0.59,0-1.18-0.17-1.71-0.52c-0.27-0.18-0.35-0.55-0.17-0.82
				c0.18-0.27,0.55-0.35,0.82-0.17c0.8,0.53,1.63,0.33,2.15-0.02c0.52-0.35,0.99-1.07,0.79-2c-0.28-1.26,0.21-2.5,1.28-3.23
				c1.06-0.73,2.4-0.74,3.48-0.03c0.8,0.53,1.64,0.34,2.15-0.02c0.52-0.35,0.99-1.06,0.79-2c-0.28-1.28,0.21-2.52,1.28-3.25
				c1.06-0.73,2.4-0.74,3.47-0.04c0.27,0.18,0.35,0.55,0.17,0.82c-0.18,0.27-0.55,0.35-0.82,0.17c-0.8-0.52-1.63-0.33-2.15,0.02
				c-0.52,0.35-0.99,1.06-0.79,2c0.28,1.28-0.21,2.52-1.28,3.25c-1.07,0.73-2.4,0.74-3.47,0.03c-0.8-0.53-1.64-0.34-2.15,0.02
				c-0.52,0.35-0.99,1.07-0.79,2c0.28,1.26-0.21,2.5-1.28,3.23C239.31,93.68,238.7,93.86,238.09,93.86z"/>
		</g>
		<g id="XMLID_1884_">
			<g id="XMLID_1889_">
				<path id="XMLID_3729_" class="st4" d="M163.62,196.88h-3.5c-1.48,0-2.69-1.21-2.69-2.69v-3.5c0-1.48,1.21-2.69,2.69-2.69h3.5
					c1.48,0,2.69,1.21,2.69,2.69v3.5C166.31,195.67,165.1,196.88,163.62,196.88z M160.12,189.19c-0.83,0-1.5,0.67-1.5,1.5v3.5
					c0,0.83,0.67,1.5,1.5,1.5h3.5c0.83,0,1.5-0.67,1.5-1.5v-3.5c0-0.83-0.67-1.5-1.5-1.5H160.12z"/>
			</g>
			<g id="XMLID_1888_">
				<path id="XMLID_3726_" class="st4" d="M174.2,196.88h-3.5c-1.48,0-2.69-1.21-2.69-2.69v-3.5c0-1.48,1.21-2.69,2.69-2.69h3.5
					c1.48,0,2.69,1.21,2.69,2.69v3.5C176.89,195.67,175.68,196.88,174.2,196.88z M170.7,189.19c-0.83,0-1.5,0.67-1.5,1.5v3.5
					c0,0.83,0.67,1.5,1.5,1.5h3.5c0.83,0,1.5-0.67,1.5-1.5v-3.5c0-0.83-0.67-1.5-1.5-1.5H170.7z"/>
			</g>
			<g id="XMLID_1886_">
				<path id="XMLID_572_" class="st1" d="M161.87,185.71L161.87,185.71c-2.12,0-3.85-1.72-3.85-3.85v0c0-2.12,1.72-3.85,3.85-3.85h0
					c2.12,0,3.85,1.72,3.85,3.85v0C165.72,183.98,164,185.71,161.87,185.71z"/>
				<path id="XMLID_3722_" class="st4" d="M163.62,186.3h-3.5c-1.48,0-2.69-1.21-2.69-2.69v-3.5c0-1.48,1.21-2.69,2.69-2.69h3.5
					c1.48,0,2.69,1.21,2.69,2.69v3.5C166.31,185.09,165.1,186.3,163.62,186.3z M160.12,178.61c-0.83,0-1.5,0.67-1.5,1.5v3.5
					c0,0.83,0.67,1.5,1.5,1.5h3.5c0.83,0,1.5-0.67,1.5-1.5v-3.5c0-0.83-0.67-1.5-1.5-1.5H160.12z"/>
			</g>
			<g id="XMLID_1885_">
				<path id="XMLID_3719_" class="st4" d="M174.2,186.3h-3.5c-1.48,0-2.69-1.21-2.69-2.69v-3.5c0-1.48,1.21-2.69,2.69-2.69h3.5
					c1.48,0,2.69,1.21,2.69,2.69v3.5C176.89,185.09,175.68,186.3,174.2,186.3z M170.7,178.61c-0.83,0-1.5,0.67-1.5,1.5v3.5
					c0,0.83,0.67,1.5,1.5,1.5h3.5c0.83,0,1.5-0.67,1.5-1.5v-3.5c0-0.83-0.67-1.5-1.5-1.5H170.7z"/>
			</g>
		</g>
		<g id="XMLID_1851_">
			<g id="XMLID_1867_">
				<g id="XMLID_1876_">
					<path id="XMLID_3718_" class="st4" d="M223.2,187.49c-0.15,0-0.3-0.06-0.42-0.17l-3.38-3.38c-0.23-0.23-0.23-0.61,0-0.84
						l3.38-3.38c0.23-0.23,0.61-0.23,0.84,0c0.23,0.23,0.23,0.61,0,0.84l-2.96,2.96l2.96,2.96c0.23,0.23,0.23,0.61,0,0.84
						C223.51,187.43,223.35,187.49,223.2,187.49z"/>
				</g>
				<g id="XMLID_1869_">
					<path id="XMLID_3717_" class="st4" d="M232.95,187.49c-0.15,0-0.3-0.06-0.42-0.17c-0.23-0.23-0.23-0.61,0-0.84l2.96-2.96
						l-2.96-2.96c-0.23-0.23-0.23-0.61,0-0.84c0.23-0.23,0.61-0.23,0.84,0l3.38,3.38c0.23,0.23,0.23,0.61,0,0.84l-3.38,3.38
						C233.25,187.43,233.1,187.49,232.95,187.49z"/>
				</g>
			</g>
			<g id="XMLID_1865_">
				<path id="XMLID_3716_" class="st4" d="M226.09,189.73c-0.07,0-0.13-0.01-0.2-0.03c-0.31-0.11-0.47-0.45-0.36-0.76l3.96-11.24
					c0.11-0.31,0.45-0.47,0.76-0.36c0.31,0.11,0.47,0.45,0.36,0.76l-3.96,11.24C226.57,189.58,226.34,189.73,226.09,189.73z"/>
			</g>
		</g>
		<g id="XMLID_1271_">
			<path id="XMLID_100_" class="st4" d="M74.96,149.44c-0.97,0-1.84-0.69-2.03-1.68l-0.21-1.1c-0.68-0.07-1.34-0.2-1.97-0.41
				l-0.63,0.92c-0.31,0.46-0.78,0.76-1.32,0.86c-0.54,0.1-1.09-0.02-1.54-0.33l-0.63-0.43c-0.45-0.31-0.76-0.78-0.86-1.32
				c-0.1-0.54,0.01-1.09,0.33-1.55l0.63-0.91c-0.43-0.52-0.81-1.09-1.11-1.69l-1.08,0.2c-0.54,0.1-1.09-0.01-1.55-0.33
				c-0.45-0.31-0.76-0.78-0.86-1.32l-0.14-0.75c-0.1-0.54,0.01-1.09,0.33-1.55c0.31-0.45,0.78-0.76,1.32-0.86l1.07-0.2
				c0.06-0.68,0.2-1.34,0.42-2l-0.89-0.61c-0.46-0.31-0.76-0.78-0.86-1.32c-0.1-0.54,0.01-1.09,0.33-1.55l0.43-0.63
				c0.31-0.45,0.78-0.76,1.32-0.86c0.54-0.1,1.09,0.01,1.54,0.32l0.89,0.61c0.53-0.44,1.1-0.81,1.71-1.12l-0.2-1.05
				c-0.1-0.54,0.01-1.09,0.33-1.55c0.31-0.45,0.78-0.76,1.32-0.86l0.75-0.14c1.12-0.21,2.2,0.53,2.41,1.65l0.2,1.05
				c0.68,0.06,1.35,0.21,2,0.43l0.6-0.89c0.31-0.46,0.78-0.76,1.32-0.87c0.54-0.1,1.09,0.01,1.55,0.33l0.63,0.43
				c0.45,0.31,0.76,0.78,0.86,1.32c0.1,0.54-0.01,1.09-0.33,1.55l-0.61,0.89c0.44,0.53,0.81,1.1,1.11,1.71l1.07-0.2
				c1.11-0.21,2.2,0.53,2.41,1.65l0.14,0.75c0.1,0.54-0.01,1.09-0.32,1.54c-0.31,0.45-0.78,0.76-1.32,0.86l-1.09,0.2
				c-0.06,0.66-0.2,1.32-0.42,1.98l0.91,0.62c0.46,0.31,0.76,0.78,0.86,1.32c0.1,0.54-0.02,1.09-0.33,1.54l-0.43,0.63
				c-0.64,0.94-1.92,1.18-2.87,0.54l-0.92-0.63c-0.51,0.42-1.08,0.79-1.69,1.1l0.2,1.1c0.1,0.54-0.01,1.09-0.33,1.55
				c-0.31,0.45-0.78,0.76-1.32,0.86l-0.75,0.14C75.22,149.42,75.09,149.44,74.96,149.44z M70.53,144.93c0.07,0,0.15,0.01,0.22,0.04
				c0.79,0.31,1.64,0.49,2.51,0.53c0.28,0.01,0.51,0.21,0.56,0.48l0.29,1.55c0.09,0.47,0.55,0.79,1.02,0.7l0.75-0.14
				c0.23-0.04,0.43-0.17,0.56-0.36c0.13-0.19,0.18-0.43,0.14-0.66l-0.29-1.55c-0.05-0.27,0.09-0.54,0.34-0.65
				c0.81-0.36,1.53-0.83,2.15-1.4c0.2-0.19,0.51-0.21,0.74-0.05l1.3,0.89c0.4,0.27,0.94,0.17,1.21-0.23l0.43-0.63
				c0.13-0.19,0.18-0.43,0.14-0.65c-0.04-0.23-0.17-0.43-0.37-0.56l-1.29-0.88c-0.23-0.16-0.32-0.45-0.22-0.71
				c0.33-0.83,0.51-1.67,0.53-2.51c0.01-0.28,0.21-0.51,0.48-0.56l1.54-0.29c0.23-0.04,0.43-0.17,0.56-0.37
				c0.13-0.19,0.18-0.42,0.14-0.65c0,0-0.14-0.75-0.14-0.75c-0.09-0.47-0.55-0.78-1.02-0.7l-1.53,0.29
				c-0.28,0.05-0.55-0.09-0.66-0.35c-0.34-0.79-0.81-1.52-1.41-2.16c-0.19-0.2-0.21-0.51-0.05-0.74l0.87-1.27
				c0.13-0.19,0.18-0.43,0.14-0.66c-0.04-0.23-0.17-0.43-0.36-0.56l-0.63-0.43c-0.19-0.13-0.42-0.18-0.65-0.14
				c-0.23,0.04-0.43,0.17-0.56,0.37l-0.86,1.27c-0.16,0.23-0.45,0.32-0.71,0.22c-0.82-0.32-1.67-0.51-2.54-0.54
				c-0.28-0.01-0.51-0.21-0.56-0.48l-0.28-1.5c-0.09-0.47-0.55-0.79-1.02-0.7l-0.75,0.14c-0.23,0.04-0.43,0.17-0.56,0.36
				c-0.13,0.19-0.18,0.43-0.14,0.66l0.28,1.5c0.05,0.27-0.09,0.54-0.35,0.65c-0.8,0.35-1.53,0.83-2.17,1.42
				c-0.2,0.19-0.51,0.21-0.74,0.06l-1.27-0.87c-0.19-0.13-0.42-0.18-0.65-0.14c-0.23,0.04-0.43,0.17-0.56,0.36l-0.43,0.63
				c-0.13,0.19-0.18,0.42-0.14,0.65c0.04,0.23,0.17,0.43,0.37,0.56l1.27,0.87c0.23,0.16,0.32,0.45,0.22,0.71
				c-0.32,0.82-0.5,1.67-0.53,2.53c-0.01,0.28-0.21,0.51-0.48,0.56l-1.52,0.29c-0.23,0.04-0.43,0.17-0.56,0.37
				c-0.13,0.19-0.18,0.42-0.14,0.65l0.14,0.75c0.04,0.23,0.17,0.43,0.36,0.56c0.19,0.13,0.43,0.18,0.66,0.14l1.54-0.29
				c0.27-0.05,0.54,0.09,0.65,0.34c0.35,0.79,0.82,1.52,1.41,2.15c0.19,0.2,0.21,0.51,0.05,0.74l-0.89,1.29
				c-0.13,0.19-0.18,0.43-0.14,0.66c0.04,0.23,0.17,0.43,0.36,0.56l0.63,0.43c0.19,0.13,0.43,0.18,0.65,0.14
				c0.23-0.04,0.43-0.17,0.56-0.37l0.89-1.3C70.15,145.03,70.34,144.93,70.53,144.93z M73.55,143.2c-1.08,0-2.13-0.32-3.03-0.94
				c-1.19-0.81-1.99-2.04-2.25-3.46c-0.55-2.92,1.38-5.74,4.3-6.29c1.42-0.27,2.85,0.03,4.04,0.85c1.19,0.81,1.99,2.04,2.25,3.45
				c0.27,1.41-0.03,2.85-0.85,4.04c-0.81,1.19-2.04,1.99-3.46,2.26C74.22,143.17,73.88,143.2,73.55,143.2z M73.57,133.6
				c-0.26,0-0.53,0.02-0.79,0.07c-2.27,0.43-3.78,2.62-3.35,4.9c0.21,1.11,0.83,2.06,1.76,2.7c0.93,0.63,2.04,0.87,3.15,0.66
				c1.1-0.21,2.06-0.83,2.69-1.76c0.63-0.93,0.87-2.04,0.66-3.15c-0.21-1.1-0.83-2.06-1.76-2.69
				C75.22,133.85,74.41,133.6,73.57,133.6z"/>
			<path id="XMLID_1310_" class="st4" d="M66.49,121.76l-0.1-0.51c-0.1-0.54-0.63-0.9-1.17-0.8l-1.04,0.2
				c-0.26-0.6-0.61-1.13-1.04-1.6l0.6-0.87c0.31-0.46,0.2-1.08-0.26-1.4l-0.43-0.29c-0.46-0.31-1.08-0.2-1.4,0.26l-0.59,0.87
				c-0.59-0.23-1.22-0.37-1.87-0.4L59,116.2c-0.1-0.54-0.63-0.9-1.17-0.8l-0.51,0.1c-0.54,0.1-0.9,0.63-0.8,1.17l0.19,1.03
				c-0.6,0.26-1.13,0.62-1.59,1.05l-0.87-0.59c-0.46-0.31-1.08-0.2-1.39,0.26l-0.29,0.43c-0.31,0.46-0.2,1.08,0.26,1.4l0.87,0.59
				c-0.23,0.59-0.37,1.21-0.39,1.86l-1.04,0.2c-0.54,0.1-0.9,0.63-0.8,1.17l0.1,0.51c0.1,0.54,0.63,0.9,1.17,0.8l1.05-0.2
				c0.26,0.59,0.61,1.12,1.04,1.58l-0.61,0.89c-0.31,0.46-0.2,1.08,0.26,1.4l0.43,0.29c0.46,0.31,1.08,0.2,1.39-0.26l0.61-0.89
				c0.58,0.23,1.2,0.36,1.85,0.39l0.2,1.06c0.1,0.54,0.63,0.9,1.17,0.8l0.51-0.1c0.54-0.1,0.9-0.63,0.8-1.17l-0.2-1.06
				c0.59-0.26,1.12-0.61,1.58-1.03l0.89,0.61c0.46,0.31,1.08,0.2,1.39-0.26l0.29-0.43c0.31-0.46,0.2-1.08-0.26-1.39l-0.88-0.61
				c0.23-0.58,0.37-1.21,0.39-1.85l1.05-0.2C66.24,122.83,66.6,122.31,66.49,121.76z M59.43,125.33c-1.34,0.25-2.64-0.63-2.89-1.98
				c-0.25-1.34,0.63-2.64,1.97-2.89c1.35-0.25,2.64,0.63,2.89,1.97C61.66,123.78,60.78,125.07,59.43,125.33z"/>
		</g>
	</g>
</g>
</svg>
